<?xml version="1.0" encoding="utf-8"?>
<svg version="1.1" xmlns:xlink="http://www.w3.org/1999/xlink" width="25px" height="25px" xmlns="http://www.w3.org/2000/svg">
  <g transform="matrix(1 0 0 1 -784 -1254 )">
    <path d="M 16.5445963541667 2.91341145833333  C 15.2587890625 2.36002604166667  13.9105902777778 2.08333333333333  12.5 2.08333333333333  C 11.0894097222222 2.08333333333333  9.7412109375 2.36002604166667  8.45540364583333 2.91341145833333  C 7.16959635416667 3.466796875  6.06282552083333 4.20735677083333  5.13509114583333 5.13509114583333  C 4.20735677083333 6.06282552083333  3.466796875 7.16959635416667  2.91341145833333 8.45540364583333  C 2.36002604166667 9.7412109375  2.08333333333333 11.0894097222222  2.08333333333333 12.5  C 2.08333333333333 13.9105902777778  2.36002604166667 15.2587890625  2.91341145833333 16.5445963541667  C 3.466796875 17.8304036458333  4.20735677083333 18.9371744791667  5.13509114583333 19.8649088541667  C 6.06282552083333 20.7926432291667  7.16959635416667 21.533203125  8.45540364583333 22.0865885416667  C 9.7412109375 22.6399739583333  11.0894097222222 22.9166666666667  12.5 22.9166666666667  C 13.9105902777778 22.9166666666667  15.2587890625 22.6399739583333  16.5445963541667 22.0865885416667  C 17.8304036458333 21.533203125  18.9371744791667 20.7926432291667  19.8649088541667 19.8649088541667  C 20.7926432291667 18.9371744791667  21.533203125 17.8304036458333  22.0865885416667 16.5445963541667  C 22.6399739583333 15.2587890625  22.9166666666667 13.9105902777778  22.9166666666667 12.5  C 22.9166666666667 11.0894097222222  22.6399739583333 9.7412109375  22.0865885416667 8.45540364583333  C 21.533203125 7.16959635416667  20.7926432291667 6.06282552083333  19.8649088541667 5.13509114583333  C 18.9371744791667 4.20735677083333  17.8304036458333 3.466796875  16.5445963541667 2.91341145833333  Z M 23.3235677083333 6.2255859375  C 24.4411892361111 8.14073350694444  25 10.2322048611111  25 12.5  C 25 14.7677951388889  24.4411892361111 16.8592664930556  23.3235677083333 18.7744140625  C 22.2059461805556 20.6895616319444  20.6895616319444 22.2059461805556  18.7744140625 23.3235677083333  C 16.8592664930556 24.4411892361111  14.7677951388889 25  12.5 25  C 10.2322048611111 25  8.14073350694444 24.4411892361111  6.2255859375 23.3235677083333  C 4.31043836805556 22.2059461805556  2.79405381944444 20.6895616319444  1.67643229166667 18.7744140625  C 0.558810763888889 16.8592664930556  0 14.7677951388889  0 12.5  C 0 10.2322048611111  0.558810763888889 8.14073350694444  1.67643229166667 6.2255859375  C 2.79405381944444 4.31043836805556  4.31043836805556 2.79405381944444  6.2255859375 1.67643229166667  C 8.14073350694444 0.558810763888887  10.2322048611111 0  12.5 0  C 14.7677951388889 0  16.8592664930556 0.558810763888887  18.7744140625 1.67643229166667  C 20.6895616319444 2.79405381944444  22.2059461805556 4.31043836805556  23.3235677083333 6.2255859375  Z " fill-rule="nonzero" fill="#000000" stroke="none" transform="matrix(1 0 0 1 784 1254 )" />
  </g>
</svg>