<?xml version="1.0" encoding="utf-8"?>
<svg version="1.1" xmlns:xlink="http://www.w3.org/1999/xlink" width="28px" height="35px" xmlns="http://www.w3.org/2000/svg">
  <g transform="matrix(1 0 0 1 -723 -469 )">
    <path d="M 7.77777777777778 11.1363636363636  L 7.77777777777778 16  L 20.2222222222222 16  L 20.2222222222222 11.1363636363636  C 20.2222222222222 9.37973484848485  19.6145833333333 7.87997159090909  18.3993055555556 6.63707386363636  C 17.1840277777778 5.39417613636364  15.7175925925926 4.77272727272727  14 4.77272727272727  C 12.2824074074074 4.77272727272727  10.8159722222222 5.39417613636364  9.60069444444444 6.63707386363636  C 8.38541666666667 7.87997159090909  7.77777777777778 9.37973484848485  7.77777777777778 11.1363636363636  Z M 27.3194444444444 16.6051136363636  C 27.7731481481482 17.0691287878788  28 17.6325757575758  28 18.2954545454545  L 28 32.6136363636364  C 28 33.2765151515152  27.7731481481482 33.8399621212121  27.3194444444444 34.3039772727273  C 26.8657407407407 34.7679924242424  26.3148148148148 35  25.6666666666667 35  L 2.33333333333333 35  C 1.68518518518519 35  1.13425925925926 34.7679924242424  0.680555555555556 34.3039772727273  C 0.226851851851852 33.8399621212121  0 33.2765151515152  0 32.6136363636364  L 0 18.2954545454545  C 0 17.6325757575758  0.226851851851852 17.0691287878788  0.680555555555556 16.6051136363636  C 1.13425925925926 16.1410984848485  1.68518518518519 15.9090909090909  2.33333333333333 15.9090909090909  L 3.11111111111111 15.9090909090909  L 3.11111111111111 11.1363636363636  C 3.11111111111111 8.08712121212121  4.18055555555556 5.46875  6.31944444444444 3.28125  C 8.45833333333333 1.09375  11.0185185185185 0  14 0  C 16.9814814814815 0  19.5416666666667 1.09375  21.6805555555556 3.28125  C 23.8194444444444 5.46875  24.8888888888889 8.08712121212121  24.8888888888889 11.1363636363636  L 24.8888888888889 15.9090909090909  L 25.6666666666667 15.9090909090909  C 26.3148148148148 15.9090909090909  26.8657407407407 16.1410984848485  27.3194444444444 16.6051136363636  Z " fill-rule="nonzero" fill="#000000" stroke="none" transform="matrix(1 0 0 1 723 469 )" />
  </g>
</svg>