<?xml version="1.0" encoding="utf-8"?>
<svg version="1.1" xmlns:xlink="http://www.w3.org/1999/xlink" width="170px" height="170px" xmlns="http://www.w3.org/2000/svg">
  <g transform="matrix(1 0 0 1 -1220 -306 )">
    <path d="M 1305 306  C 1352.6 306  1390 343.4  1390 391  C 1390 438.6  1352.6 476  1305 476  C 1257.4 476  1220 438.6  1220 391  C 1220 343.4  1257.4 306  1305 306  Z " fill-rule="nonzero" fill="#ffffff" stroke="none" />
    <path d="M 1305 306.5  C 1352.32 306.5  1389.5 343.68  1389.5 391  C 1389.5 438.32  1352.32 475.5  1305 475.5  C 1257.68 475.5  1220.5 438.32  1220.5 391  C 1220.5 343.68  1257.68 306.5  1305 306.5  Z " stroke-width="1" stroke="#797979" fill="none" />
  </g>
</svg>