<?xml version="1.0" encoding="utf-8"?>
<svg version="1.1" xmlns:xlink="http://www.w3.org/1999/xlink" width="48px" height="60px" xmlns="http://www.w3.org/2000/svg">
  <g transform="matrix(1 0 0 1 -1281 -330 )">
    <path d="M 13.3333333333333 19.0909090909091  L 13.3333333333333 28  L 34.6666666666667 28  L 34.6666666666667 19.0909090909091  C 34.6666666666667 16.0795454545455  33.625 13.5085227272727  31.5416666666667 11.3778409090909  C 29.4583333333333 9.24715909090909  26.9444444444445 8.18181818181818  24 8.18181818181818  C 21.0555555555556 8.18181818181818  18.5416666666667 9.24715909090909  16.4583333333333 11.3778409090909  C 14.375 13.5085227272727  13.3333333333333 16.0795454545455  13.3333333333333 19.0909090909091  Z M 46.8333333333333 28.4659090909091  C 47.6111111111111 29.2613636363636  48 30.2272727272727  48 31.3636363636364  L 48 55.9090909090909  C 48 57.0454545454545  47.6111111111111 58.0113636363636  46.8333333333333 58.8068181818182  C 46.0555555555556 59.6022727272727  45.1111111111111 60  44 60  L 4 60  C 2.88888888888889 60  1.94444444444444 59.6022727272727  1.16666666666667 58.8068181818182  C 0.388888888888889 58.0113636363636  0 57.0454545454545  0 55.9090909090909  L 0 31.3636363636364  C 0 30.2272727272727  0.388888888888889 29.2613636363636  1.16666666666667 28.4659090909091  C 1.94444444444444 27.6704545454545  2.88888888888889 27.2727272727273  4 27.2727272727273  L 5.33333333333333 27.2727272727273  L 5.33333333333333 19.0909090909091  C 5.33333333333333 13.8636363636364  7.16666666666667 9.375  10.8333333333333 5.625  C 14.5 1.875  18.8888888888889 0  24 0  C 29.1111111111111 0  33.5 1.875  37.1666666666667 5.625  C 40.8333333333333 9.375  42.6666666666667 13.8636363636364  42.6666666666667 19.0909090909091  L 42.6666666666667 27.2727272727273  L 44 27.2727272727273  C 45.1111111111111 27.2727272727273  46.0555555555556 27.6704545454545  46.8333333333333 28.4659090909091  Z " fill-rule="nonzero" fill="#000000" stroke="none" transform="matrix(1 0 0 1 1281 330 )" />
  </g>
</svg>