<?xml version="1.0" encoding="utf-8"?>
<svg version="1.1" xmlns:xlink="http://www.w3.org/1999/xlink" width="49px" height="40px" xmlns="http://www.w3.org/2000/svg">
  <g transform="matrix(1 0 0 1 -1206 -619 )">
    <path d="M 13.27880859375 11.1390887290168  C 13.6775716145833 10.7474020783373  13.876953125 10.2238209432454  13.876953125 9.56834532374101  C 13.876953125 8.91286970423661  13.6775716145833 8.38529176658673  13.27880859375 7.98561151079137  C 12.8800455729167 7.585931254996  12.3536783854167 7.38609112709832  11.69970703125 7.38609112709832  C 11.0138346354167 7.38609112709832  10.40771484375 7.58992805755396  9.88134765625 7.99760191846523  C 9.35498046875 8.4052757793765  9.091796875 8.92885691446842  9.091796875 9.56834532374101  C 9.091796875 10.1918465227818  9.35498046875 10.7074340527578  9.88134765625 11.1151079136691  C 10.40771484375 11.5227817745803  11.0138346354167 11.726618705036  11.69970703125 11.726618705036  C 12.3536783854167 11.726618705036  12.8800455729167 11.5307753796962  13.27880859375 11.1390887290168  Z M 31.043701171875 22.9496402877698  C 31.450439453125 22.5979216626699  31.65380859375 22.1902478017586  31.65380859375 21.726618705036  C 31.65380859375 21.2789768185452  31.450439453125 20.8792965627498  31.043701171875 20.5275779376499  C 30.636962890625 20.17585931255  30.1145833333333 20  29.4765625 20  C 29.0458984375 20  28.651123046875 20.1798561151079  28.292236328125 20.5395683453237  C 27.933349609375 20.8992805755396  27.75390625 21.294964028777  27.75390625 21.726618705036  C 27.75390625 22.1742605915268  27.933349609375 22.5779376498801  28.292236328125 22.9376498800959  C 28.651123046875 23.2973621103118  29.0458984375 23.4772182254197  29.4765625 23.4772182254197  C 30.1145833333333 23.4772182254197  30.636962890625 23.3013589128697  31.043701171875 22.9496402877698  Z M 25.421142578125 11.1390887290168  C 25.8119303385417 10.7474020783373  26.00732421875 10.2238209432454  26.00732421875 9.56834532374101  C 26.00732421875 8.91286970423661  25.8119303385417 8.38529176658673  25.421142578125 7.98561151079137  C 25.0303548177083 7.585931254996  24.5079752604167 7.38609112709832  23.85400390625 7.38609112709832  C 23.1681315104167 7.38609112709832  22.56201171875 7.58992805755396  22.03564453125 7.99760191846523  C 21.50927734375 8.4052757793765  21.24609375 8.92885691446842  21.24609375 9.56834532374101  C 21.24609375 10.1918465227818  21.50927734375 10.7074340527578  22.03564453125 11.1151079136691  C 22.56201171875 11.5227817745803  23.1681315104167 11.726618705036  23.85400390625 11.726618705036  C 24.5079752604167 11.726618705036  25.0303548177083 11.5307753796962  25.421142578125 11.1390887290168  Z M 40.578125 22.9496402877698  C 40.9928385416667 22.5979216626699  41.2001953125 22.1902478017586  41.2001953125 21.726618705036  C 41.2001953125 21.2789768185452  40.9928385416667 20.8792965627498  40.578125 20.5275779376499  C 40.1634114583333 20.17585931255  39.64501953125 20  39.02294921875 20  C 38.59228515625 20  38.197509765625 20.1798561151079  37.838623046875 20.5395683453237  C 37.479736328125 20.8992805755396  37.30029296875 21.294964028777  37.30029296875 21.726618705036  C 37.30029296875 22.1742605915268  37.479736328125 22.5779376498801  37.838623046875 22.9376498800959  C 38.197509765625 23.2973621103118  38.59228515625 23.4772182254197  39.02294921875 23.4772182254197  C 39.64501953125 23.4772182254197  40.1634114583333 23.3013589128697  40.578125 22.9496402877698  Z M 31.570068359375 5.95923261390887  C 33.2528483072917 7.82174260591527  34.3414713541667 9.90407673860911  34.8359375 12.2062350119904  C 34.3414713541667 12.1422861710631  33.783203125 12.1103117505995  33.1611328125 12.1103117505995  C 30.4654947916667 12.1103117505995  27.9851888020833 12.7258193445244  25.72021484375 13.9568345323741  C 23.4552408854167 15.1878497202238  21.6727701822917 16.8545163868905  20.372802734375 18.9568345323741  C 19.0728352864583 21.0591526778577  18.4228515625 23.3573141486811  18.4228515625 25.8513189448441  C 18.4228515625 27.0983213429257  18.6062825520833 28.3133493205436  18.97314453125 29.4964028776978  C 18.4148763020833 29.5443645083933  17.87255859375 29.568345323741  17.34619140625 29.568345323741  C 16.9314778645833 29.568345323741  16.53271484375 29.5563549160671  16.14990234375 29.5323741007194  C 15.76708984375 29.5083932853717  15.3284505208333 29.4564348521183  14.833984375 29.3764988009592  C 14.3395182291667 29.2965627498002  13.984619140625 29.2406075139888  13.769287109375 29.2086330935252  C 13.553955078125 29.1766586730615  13.1193033854167 29.0927258193445  12.46533203125 28.9568345323741  C 11.8113606770833 28.8209432454037  11.41259765625 28.7370103916866  11.26904296875 28.705035971223  L 5.2158203125 31.7505995203837  L 6.9384765625 26.5227817745803  C 2.31282552083333 23.277378097522  0 19.3605115907274  0 14.7721822541966  C 0 12.07034372502  0.777587890625 9.58433253397282  2.332763671875 7.31414868105515  C 3.887939453125 5.04396482813749  5.993408203125 3.25739408473221  8.649169921875 1.95443645083933  C 11.304931640625 0.65147881694644  14.2039388020833 0  17.34619140625 0  C 20.1534830729167 0  22.8052571614583 0.527577937649881  25.301513671875 1.58273381294964  C 27.7977701822917 2.6378896882494  29.8872884114583 4.09672262190248  31.570068359375 5.95923261390887  Z M 46.954345703125 19.3405275779377  C 48.318115234375 21.2829736211031  49 23.3892885691447  49 25.6594724220624  C 49 27.5299760191847  48.4536946614583 29.3165467625899  47.361083984375 31.0191846522782  C 46.2684733072917 32.7218225419664  44.7890625 34.2685851318945  42.9228515625 35.6594724220624  L 44.23876953125 40  L 39.4775390625 37.3860911270983  C 37.0849609375 37.9776179056755  35.3463541666667 38.273381294964  34.26171875 38.273381294964  C 31.5660807291667 38.273381294964  29.0857747395833 37.7098321342926  26.82080078125 36.5827338129496  C 24.5558268229167 35.4556354916067  22.7733561197917 33.9248601119105  21.473388671875 31.9904076738609  C 20.1734212239583 30.0559552358114  19.5234375 27.9456434852118  19.5234375 25.6594724220624  C 19.5234375 23.3733013589129  20.1734212239583 21.2629896083133  21.473388671875 19.3285371702638  C 22.7733561197917 17.3940847322142  24.5558268229167 15.863309352518  26.82080078125 14.7362110311751  C 29.0857747395833 13.6091127098321  31.5660807291667 13.0455635491607  34.26171875 13.0455635491607  C 36.8297526041667 13.0455635491607  39.2462565104167 13.6091127098321  41.51123046875 14.7362110311751  C 43.7762044270833 15.863309352518  45.590576171875 17.3980815347722  46.954345703125 19.3405275779377  Z " fill-rule="nonzero" fill="#000000" stroke="none" transform="matrix(1 0 0 1 1206 619 )" />
  </g>
</svg>