<?xml version="1.0" encoding="utf-8"?>
<svg version="1.1" xmlns:xlink="http://www.w3.org/1999/xlink" width="39px" height="40px" xmlns="http://www.w3.org/2000/svg">
  <g transform="matrix(1 0 0 1 -1290 -619 )">
    <path d="M 0 28.3928571428571  C 0 24.3005952380952  1.86560364464692 20.8333333333333  5.59681093394077 17.9910714285714  C 5.47835990888383 17.7083333333333  5.41913439635535 17.3214285714286  5.41913439635535 16.8303571428571  C 5.41913439635535 16.5327380952381  5.50056947608201 16.1681547619048  5.66343963553531 15.7366071428571  C 5.82630979498861 15.3050595238095  6.00398633257403 14.9702380952381  6.19646924829157 14.7321428571429  C 6.18166287015945 14.4047619047619  6.2371867881549 14.0104166666667  6.3630410022779 13.5491071428571  C 6.48889521640091 13.0877976190476  6.65546697038724 12.7678571428571  6.8627562642369 12.5892857142857  C 6.8627562642369 10.5208333333333  7.54755125284738 8.37425595238095  8.91714123006834 6.14955357142857  C 10.2867312072893 3.92485119047619  11.8969248291572 2.36607142857143  13.747722095672 1.47321428571428  C 15.8058086560364 0.491071428571428  18.2044419134396 0  20.9436218678816 0  C 22.9128701594533 0  24.8821184510251 0.409226190476195  26.8513667425968 1.22767857142857  C 27.5768792710706 1.54017857142857  28.2431662870159 1.89732142857143  28.8502277904328 2.29910714285714  C 29.4572892938497 2.70089285714286  29.9829157175399 3.11755952380952  30.4271070615034 3.54910714285714  C 30.871298405467 3.98065476190476  31.2784738041002 4.48660714285714  31.6486332574032 5.06696428571428  C 32.0187927107062 5.64732142857143  32.3297266514806 6.19791666666667  32.5814350797267 6.71875  C 32.8331435079727 7.23958333333333  33.0737471526196 7.86830357142857  33.3032460136674 8.60491071428572  C 33.5327448747153 9.34151785714286  33.7215261958998 10.0074404761905  33.869589977221 10.6026785714286  C 34.0176537585421 11.1979166666667  34.1805239179954 11.9270833333333  34.3582004555809 12.7901785714286  L 34.380410022779 12.9017857142857  C 35.1947608200456 14.1369047619048  35.6019362186788 15.2529761904762  35.6019362186788 16.25  C 35.6019362186788 16.4583333333333  35.5353075170843 16.7559523809524  35.4020501138952 17.1428571428571  C 35.2687927107062 17.5297619047619  35.2021640091116 17.8125  35.2021640091116 17.9910714285714  C 35.2021640091116 18.0059523809524  35.2132687927107 18.031994047619  35.2354783599089 18.0691964285714  C 35.2576879271071 18.1063988095238  35.2835990888383 18.1436011904762  35.3132118451025 18.1808035714286  C 35.3428246013667 18.218005952381  35.3576309794989 18.2440476190476  35.3576309794989 18.2589285714286  C 36.497722095672 19.9553571428571  37.3898063781321 21.5513392857143  38.0338838268793 23.046875  C 38.6779612756264 24.5424107142857  39 26.09375  39 27.7008928571429  C 39 28.3407738095238  38.8556378132118 29.0848214285714  38.5669134396355 29.9330357142857  C 38.2781890660592 30.78125  37.8673120728929 31.2053571428571  37.3342824601367 31.2053571428571  C 37.2010250569476 31.2053571428571  37.0566628701595 31.1495535714286  36.9011958997722 31.0379464285714  C 36.745728929385 30.9263392857143  36.6050683371298 30.796130952381  36.4792141230068 30.6473214285714  C 36.3533599088838 30.4985119047619  36.2126993166287 30.3050595238095  36.0572323462415 30.0669642857143  C 35.9017653758542 29.828869047619  35.7833143507973 29.6316964285714  35.7018792710706 29.4754464285714  C 35.620444191344 29.3191964285714  35.5205011389522 29.125744047619  35.4020501138952 28.8950892857143  C 35.2835990888383 28.6644345238095  35.2169703872437 28.5342261904762  35.2021640091116 28.5044642857143  C 35.1873576309795 28.4895833333333  35.1651480637813 28.4821428571429  35.1355353075171 28.4821428571429  L 35.0244874715262 28.5714285714286  C 34.1509111617312 30.8630952380952  33.1736902050114 32.5223214285714  32.0928246013667 33.5491071428571  C 32.3889521640091 33.8467261904762  32.8442482915718 34.1331845238095  33.4587129840547 34.4084821428571  C 34.0731776765376 34.6837797619048  34.5839977220957 34.9925595238095  34.9911731207289 35.3348214285714  C 35.3983485193622 35.6770833333333  35.6611617312073 36.1607142857143  35.7796127562642 36.7857142857143  C 35.75 36.8452380952381  35.7203872437358 36.9642857142857  35.6907744874715 37.1428571428571  C 35.6611617312073 37.3214285714286  35.6093394077449 37.4553571428571  35.5353075170843 37.5446428571429  C 34.5876993166287 38.9880952380952  32.3519362186788 39.7098214285714  28.8280182232346 39.7098214285714  C 28.0432801822323 39.7098214285714  27.2252277904328 39.6428571428571  26.373861047836 39.5089285714286  C 25.5224943052392 39.375  24.7969817767654 39.2261904761905  24.1973234624146 39.0625  C 23.5976651480638 38.8988095238095  22.8240318906606 38.6755952380952  21.876423690205 38.3928571428571  C 21.6543280182232 38.3184523809524  21.4840546697039 38.266369047619  21.3656036446469 38.2366071428571  C 21.1583143507973 38.1770833333333  20.8177676537585 38.1436011904762  20.3439635535308 38.1361607142857  C 19.870159453303 38.1287202380952  19.5740318906606 38.1175595238095  19.4555808656036 38.1026785714286  C 18.8485193621868 38.7723214285714  17.9046127562642 39.2559523809524  16.623861047836 39.5535714285714  C 15.3431093394077 39.8511904761905  14.0956719817768 40  12.8815489749431 40  C 12.3633257403189 40  11.8525056947608 39.9888392857143  11.3490888382688 39.9665178571429  C 10.8456719817768 39.9441964285714  10.1571753986333 39.8772321428571  9.28359908883827 39.765625  C 8.41002277904328 39.6540178571429  7.6623006833713 39.5014880952381  7.04043280182232 39.3080357142857  C 6.41856492027335 39.1145833333333  5.86702733485194 38.8169642857143  5.38582004555809 38.4151785714286  C 4.90461275626424 38.0133928571429  4.66400911161731 37.5372023809524  4.66400911161731 36.9866071428571  C 4.66400911161731 36.391369047619  4.7380410022779 35.9486607142857  4.88610478359909 35.6584821428571  C 5.03416856492027 35.3683035714286  5.3376993166287 35.0074404761905  5.79669703872437 34.5758928571429  C 5.95956719817768 34.546130952381  6.25939635535308 34.4494047619048  6.69618451025057 34.2857142857143  C 7.13297266514806 34.1220238095238  7.499430523918 34.0327380952381  7.79555808656036 34.0178571428571  C 7.85478359908884 34.0178571428571  7.95842824601367 34.0029761904762  8.10649202733485 33.9732142857143  C 8.13610478359909 33.9434523809524  8.15091116173121 33.9136904761905  8.15091116173121 33.8839285714286  L 8.10649202733485 33.8169642857143  C 7.39578587699317 33.6532738095238  6.59624145785877 32.8683035714286  5.70785876993166 31.4620535714286  C 4.81947608200456 30.0558035714286  4.27904328018223 28.891369047619  4.08656036446469 27.96875  L 3.9755125284738 27.9017857142857  C 3.91628701594533 27.9017857142857  3.82744874715262 28.0505952380952  3.70899772209567 28.3482142857143  C 3.44248291571754 28.9583333333333  3.03900911161731 29.5126488095238  2.49857630979499 30.0111607142857  C 1.95814350797267 30.5096726190476  1.38439635535308 30.7886904761905  0.777334851936219 30.8482142857143  L 0.755125284738041 30.8482142857143  C 0.695899772209567 30.8482142857143  0.651480637813212 30.8147321428571  0.621867881548975 30.7477678571429  C 0.592255125284738 30.6808035714286  0.555239179954442 30.639880952381  0.510820045558087 30.625  C 0.170273348519362 29.8214285714286  0 29.077380952381  0 28.3928571428571  Z " fill-rule="nonzero" fill="#000000" stroke="none" transform="matrix(1 0 0 1 1290 619 )" />
  </g>
</svg>