<?xml version="1.0" encoding="utf-8"?>
<svg version="1.1" xmlns:xlink="http://www.w3.org/1999/xlink" width="41px" height="40px" xmlns="http://www.w3.org/2000/svg">
  <g transform="matrix(1 0 0 1 -1364 -619 )">
    <path d="M 10.2099609375 2.74849899933289  C 13.3508029513889 0.916166333110962  16.7808159722222 0  20.5 0  C 24.2191840277778 0  27.6491970486111 0.916166333110962  30.7900390625 2.74849899933289  C 33.9308810763889 4.58083166555481  36.4177517361111 7.06693351122971  38.2506510416667 10.2068045363576  C 40.0835503472222 13.3466755614854  41 16.7756281965755  41 20.4936624416278  C 41 24.9588614631977  39.6965060763889 28.9748721369802  37.0895182291667 32.5416944629753  C 34.4825303819445 36.1085167889704  31.1148003472222 38.5768289971092  26.986328125 39.9466310873916  C 26.505859375 40.0355792750723  26.1499565972222 39.9733155436958  25.9186197916667 39.7598398932622  C 25.6872829861111 39.5463642428286  25.5716145833333 39.2795196797865  25.5716145833333 38.9593062041361  C 25.5716145833333 38.9059372915277  25.5760633680556 38.2254836557705  25.5849609375 36.9179452968646  C 25.5938585069444 35.6104069379586  25.5983072916667 34.4140538136536  25.5983072916667 33.3288859239493  C 25.5983072916667 31.6032910829442  25.1356336805556 30.3402268178786  24.2102864583333 29.5396931287525  C 25.224609375 29.4329553035357  26.1366102430556 29.2728485657105  26.9462890625 29.0593729152769  C 27.7559678819444 28.8458972648432  28.5923394097222 28.4989993328886  29.4554036458333 28.0186791194129  C 30.3184678819444 27.5383589059373  31.0391710069444 26.9468534578608  31.6175130208333 26.2441627751835  C 32.1958550347222 25.5414720925061  32.6674262152778 24.607516121859  33.0322265625 23.4422948632422  C 33.3970269097222 22.2770736046253  33.5794270833333 20.9384033800311  33.5794270833333 19.4262841894596  C 33.5794270833333 17.3093173226595  32.8765190972222 15.4769846564376  31.470703125 13.9292861907939  C 32.1291232638889 12.3104291750056  32.0579427083333 10.4958861463198  31.2571614583333 8.48565710473649  C 30.7588975694444 8.32555036691128  30.0381944444444 8.42339337336001  29.0950520833333 8.77918612408272  C 28.1519097222222 9.13497887480542  27.3333333333333 9.5263509006004  26.6393229166667 9.95330220146764  L 25.625 10.5937291527685  C 23.9700520833333 10.131198576829  22.26171875 9.89993328885924  20.5 9.89993328885924  C 18.73828125 9.89993328885924  17.0299479166667 10.131198576829  15.375 10.5937291527685  C 15.0902777777778 10.398043139871  14.7121310763889 10.1578830331332  14.2405598958333 9.87324883255503  C 13.7689887152778 9.58861463197687  13.0260416666667 9.24616410940627  12.01171875 8.84589726484323  C 10.9973958333333 8.44563042028019  10.2411024305556 8.32555036691128  9.74283854166667 8.48565710473649  C 8.94205729166667 10.4958861463198  8.87087673611111 12.3104291750056  9.529296875 13.9292861907939  C 8.12348090277778 15.4769846564376  7.42057291666667 17.3093173226595  7.42057291666667 19.4262841894596  C 7.42057291666667 20.9384033800311  7.60297309027778 22.2726261952413  7.9677734375 23.4289526350901  C 8.33257378472222 24.5852790749388  8.79969618055556 25.5192350455859  9.369140625 26.2308205470314  C 9.93858506944445 26.9424060484768  10.6548394097222 27.5383589059373  11.5179036458333 28.0186791194129  C 12.3809678819444 28.4989993328886  13.2173394097222 28.8458972648432  14.0270182291667 29.0593729152769  C 14.8366970486111 29.2728485657105  15.7486979166667 29.4329553035357  16.7630208333333 29.5396931287525  C 16.0690104166667 30.1801200800534  15.6330295138889 31.0962864131643  15.455078125 32.2881921280854  C 15.0813802083333 32.4660885034467  14.6809895833333 32.5995107849678  14.25390625 32.6884589726484  C 13.8268229166667 32.7774071603291  13.3196614583333 32.8218812541694  12.732421875 32.8218812541694  C 12.1451822916667 32.8218812541694  11.5623914930556 32.630642650656  10.9840494791667 32.2481654436291  C 10.4057074652778 31.8656882366022  9.91189236111111 31.309762063598  9.50260416666667 30.5803869246164  C 9.16449652777778 30.0111185234601  8.73296440972222 29.5485879475206  8.2080078125 29.1927951967979  C 7.68305121527778 28.8370024460752  7.24262152777778 28.6235267956415  6.88671875 28.552368245497  L 6.35286458333333 28.4723148765844  C 5.97916666666667 28.4723148765844  5.72113715277778 28.5123415610407  5.57877604166667 28.5923949299533  C 5.43641493055556 28.6724482988659  5.39192708333333 28.7747387146987  5.4453125 28.8992661774516  C 5.49869791666667 29.0237936402046  5.57877604166667 29.1483211029575  5.685546875 29.2728485657105  C 5.79231770833333 29.3973760284634  5.90798611111111 29.5041138536802  6.03255208333333 29.5930620413609  L 6.21940104166667 29.7264843228819  C 6.61089409722222 29.9043806982433  6.99793836805556 30.2423838114298  7.38053385416667 30.7404936624416  C 7.76312934027778 31.2386035134534  8.04340277777778 31.6922392706249  8.22135416666667 32.101400933956  L 8.48828125 32.7151434289526  C 8.71961805555556 33.3911496553258  9.11111111111111 33.9381810095619  9.66276041666667 34.3562374916611  C 10.2144097222222 34.7742939737603  10.810546875 35.0411385368023  11.451171875 35.1567711807872  C 12.091796875 35.2724038247721  12.7101779513889 35.3346675561485  13.3063151041667 35.3435623749166  C 13.9024522569444 35.3524571936847  14.3962673611111 35.3213253279964  14.7877604166667 35.2501667778519  L 15.4016927083333 35.1434289526351  C 15.4016927083333 35.8194351790082  15.4061414930556 36.6066266399822  15.4150390625 37.505003335557  C 15.4239366319444 38.4033800311319  15.4283854166667 38.8881476539915  15.4283854166667 38.9593062041361  C 15.4283854166667 39.2795196797865  15.3127170138889 39.5463642428286  15.0813802083333 39.7598398932622  C 14.8500434027778 39.9733155436958  14.494140625 40.0355792750723  14.013671875 39.9466310873916  C 9.88519965277778 38.5768289971092  6.51746961805556 36.1085167889704  3.91048177083333 32.5416944629753  C 1.30349392361111 28.9748721369802  0 24.9588614631977  0 20.4936624416278  C 0 16.7756281965755  0.916449652777778 13.3466755614854  2.74934895833333 10.2068045363576  C 4.58224826388889 7.06693351122971  7.06911892361111 4.58083166555481  10.2099609375 2.74849899933289  Z M 7.42057291666667 29.4863242161441  C 7.58072916666667 29.5930620413609  7.69639756944445 29.5752724038248  7.767578125 29.4329553035357  C 7.82096354166667 29.3084278407827  7.75868055555556 29.2016900155659  7.58072916666667 29.1127418278853  C 7.40277777777778 29.0593729152769  7.287109375 29.077162552813  7.23372395833333 29.1661107404937  C 7.18033854166667 29.2906382032466  7.24262152777778 29.3973760284634  7.42057291666667 29.4863242161441  Z M 8.16796875 30.260173448966  C 8.34592013888889 30.4380698243273  8.48828125 30.4647542806315  8.59505208333333 30.3402268178786  C 8.71961805555556 30.2512786301979  8.70182291666667 30.1089615299088  8.54166666666667 29.9132755170113  C 8.36371527777778 29.7531687791861  8.22135416666667 29.7264843228819  8.11458333333333 29.8332221480987  C 7.99001736111111 29.9221703357794  8.0078125 30.0644874360685  8.16796875 30.260173448966  Z M 8.94205729166667 31.3542361574383  C 9.10221354166667 31.585501445408  9.25347222222222 31.6477651767845  9.39583333333333 31.5410273515677  C 9.55598958333333 31.4164998888148  9.55598958333333 31.2474983322215  9.39583333333333 31.0340226817879  C 9.25347222222222 30.8027573938181  9.10221354166667 30.7493884812097  8.94205729166667 30.8739159439626  C 8.78190104166667 30.9628641316433  8.78190104166667 31.1229708694685  8.94205729166667 31.3542361574383  Z M 9.98307291666667 32.5817211474316  C 10.1966145833333 32.7951967978652  10.3745659722222 32.8218812541694  10.5169270833333 32.6617745163442  C 10.6592881944444 32.5194574160551  10.6236979166667 32.3504558594619  10.41015625 32.1547698465644  C 10.1966145833333 31.9412941961308  10.0186631944444 31.9146097398266  9.87630208333333 32.0747164776518  C 9.71614583333333 32.2170335779408  9.75173611111111 32.3860351345341  9.98307291666667 32.5817211474316  Z M 11.53125 33.4889926617745  C 11.7981770833333 33.5957304869913  11.9672309027778 33.5423615743829  12.0384114583333 33.3288859239493  C 12.091796875 33.1331999110518  11.9761284722222 32.9908828107627  11.69140625 32.9019346230821  C 11.4244791666667 32.8307760729375  11.2554253472222 32.893039804314  11.1842447916667 33.0887258172115  C 11.1130642361111 33.284411830109  11.2287326388889 33.41783411163  11.53125 33.4889926617745  Z M 13.29296875 33.7558372248165  C 13.5776909722222 33.7558372248165  13.7200520833333 33.6579942183678  13.7200520833333 33.4623082054703  C 13.7200520833333 33.2310429175006  13.5687934027778 33.1331999110518  13.2662760416667 33.1687791861241  C 12.9815538194444 33.1687791861241  12.8391927083333 33.2666221925728  12.8391927083333 33.4623082054703  C 12.8391927083333 33.6935734934401  12.9904513888889 33.7914164998888  13.29296875 33.7558372248165  Z M 14.89453125 33.5690460306871  C 15.1792534722222 33.4978874805426  15.3038194444444 33.3733600177896  15.2682291666667 33.1954636424283  C 15.2326388888889 32.9997776295308  15.0724826388889 32.9197242606182  14.7877604166667 32.9553035356905  C 14.5030381944444 33.0086724482989  14.3784722222222 33.1420947298199  14.4140625 33.3555703802535  C 14.4496527777778 33.5690460306871  14.6098090277778 33.6402045808317  14.89453125 33.5690460306871  Z " fill-rule="nonzero" fill="#000000" stroke="none" transform="matrix(1 0 0 1 1364 619 )" />
  </g>
</svg>