<?xml version="1.0" encoding="utf-8"?>
<svg version="1.1" xmlns:xlink="http://www.w3.org/1999/xlink" width="5px" height="5px" xmlns="http://www.w3.org/2000/svg">
  <g transform="matrix(1 0 0 1 -2325 -1335 )">
    <path d="M 4.83173076923077 1.79269061121613  C 4.94391025641026 1.81159420289855  5 1.85990338164251  5 1.93761814744802  C 5 1.98382692711615  4.97395833333333 2.03423650493594  4.921875 2.08884688090737  L 3.83112980769231 3.20415879017013  L 4.08954326923077 4.77945809703844  C 4.09154647435897 4.79416089056921  4.09254807692308 4.81516488132745  4.09254807692308 4.84247006931317  C 4.09254807692308 4.88657844990548  4.08203125 4.92386053350137  4.06099759615385 4.95431632010082  C 4.03996394230769 4.98477210670027  4.00941506410256 5  3.96935096153846 5  C 3.93129006410256 5  3.89122596153846 4.98739760554505  3.84915865384615 4.96219281663516  L 2.5 4.21865154379332  L 1.15084134615385 4.96219281663516  C 1.10677083333333 4.98739760554505  1.06670673076923 5  1.03064903846154 5  C 0.988581730769231 5  0.95703125 4.98477210670027  0.935997596153846 4.95431632010082  C 0.914963942307692 4.92386053350137  0.904447115384615 4.88657844990548  0.904447115384615 4.84247006931317  C 0.904447115384615 4.82986767485822  0.906450320512821 4.80886368409998  0.910456730769231 4.77945809703844  L 1.16887019230769 3.20415879017013  L 0.0751201923076923 2.08884688090737  C 0.0250400641025641 2.03213610586011  0 1.98172652804033  0 1.93761814744802  C 0 1.85990338164251  0.0560897435897436 1.81159420289855  0.168269230769231 1.79269061121613  L 1.67668269230769 1.56269691241336  L 2.35276442307692 0.129174543163201  C 2.39082532051282 0.0430581810544001  2.43990384615385 0  2.5 0  C 2.56009615384615 0  2.60917467948718 0.0430581810544001  2.64723557692308 0.129174543163201  L 3.32331730769231 1.56269691241336  L 4.83173076923077 1.79269061121613  Z " fill-rule="nonzero" fill="#f59a23" stroke="none" transform="matrix(1 0 0 1 2325 1335 )" />
  </g>
</svg>