<?xml version="1.0" encoding="utf-8"?>
<svg version="1.1" xmlns:xlink="http://www.w3.org/1999/xlink" width="5px" height="11px" xmlns="http://www.w3.org/2000/svg">
  <g transform="matrix(1 0 0 1 -2378 -1422 )">
    <path d="M 4.91408934707904 5.24649298597194  C 4.97136311569301 5.31997327989312  5 5.40447561790247  5 5.5  C 5 5.59552438209753  4.97136311569301 5.68002672010688  4.91408934707904 5.75350701402806  L 0.910652920962199 10.8897795591182  C 0.853379152348225 10.9632598530394  0.787514318442153 11  0.713058419243986 11  C 0.638602520045819 11  0.572737686139748 10.9632598530394  0.515463917525773 10.8897795591182  L 0.0859106529209622 10.3386773547094  C 0.0286368843069874 10.2651970607882  0 10.1806947227789  0 10.0851703406814  C 0 9.98964595858383  0.0286368843069874 9.90514362057448  0.0859106529209622 9.83166332665331  L 3.46219931271478 5.5  L 0.0859106529209622 1.16833667334669  C 0.0286368843069874 1.09485637942552  0 1.01035404141617  0 0.914829659318638  C 0 0.819305277221107  0.0286368843069874 0.734802939211756  0.0859106529209622 0.661322645290581  L 0.515463917525773 0.110220440881764  C 0.572737686139748 0.0367401469605875  0.638602520045819 0  0.713058419243986 0  C 0.787514318442153 0  0.853379152348225 0.0367401469605875  0.910652920962199 0.110220440881764  L 4.91408934707904 5.24649298597194  Z " fill-rule="nonzero" fill="#7f7f7f" stroke="none" transform="matrix(1 0 0 1 2378 1422 )" />
  </g>
</svg>