<?xml version="1.0" encoding="utf-8"?>
<svg version="1.1" xmlns:xlink="http://www.w3.org/1999/xlink" width="22px" height="30px" xmlns="http://www.w3.org/2000/svg">
  <g transform="matrix(1 0 0 1 -2099 -1455 )">
    <path d="M 2110 1480.11069643178  C 2106.6 1474.49119780417  2101.5 1471.11949862761  2101.5 1465.5  C 2101.5 1462.52857142857  2103.2 1457.5  2110 1457.5  C 2116.8 1457.5  2118.5 1462.52857142857  2118.5 1465.5  C 2118.5 1471.11949862761  2113.4 1474.49119780417  2110 1480.11069643178  Z " fill-rule="nonzero" fill="#009dd9" stroke="none" fill-opacity="0" />
    <path d="M 2110 1485  C 2105.6 1477.5  2099 1473  2099 1465.5  C 2099 1461.6  2101.2 1455  2110 1455  C 2118.8 1455  2121 1461.6  2121 1465.5  C 2121 1473  2114.4 1477.5  2110 1485  Z M 2110 1479.13283571814  C 2113.2 1473.88943736501  2118 1470.74339835313  2118 1465.5  C 2118 1462.71428571429  2116.4 1458  2110 1458  C 2103.6 1458  2102 1462.71428571429  2102 1465.5  C 2102 1470.74339835313  2106.8 1473.88943736501  2110 1479.13283571814  Z " fill-rule="nonzero" fill="#d9001b" stroke="none" />
  </g>
</svg>