<?xml version="1.0" encoding="utf-8"?>
<svg version="1.1" xmlns:xlink="http://www.w3.org/1999/xlink" width="29px" height="30px" xmlns="http://www.w3.org/2000/svg">
  <g transform="matrix(1 0 0 1 -2096 -1495 )">
    <path d="M 18.313698630137 10.29296875  L 28.3047945205479 25.78125  C 29.0463470319635 26.9401041666667  29.188698630137 27.9329427083333  28.7318493150685 28.759765625  C 28.275 29.5865885416667  27.3447488584475 30  25.941095890411 30  L 3.05890410958904 30  C 1.65525114155251 30  0.725 29.5865885416667  0.268150684931507 28.759765625  C -0.188698630136986 27.9329427083333  -0.0463470319634702 26.9401041666667  0.695205479452055 25.78125  L 10.686301369863 10.29296875  L 10.686301369863 2.5  L 9.41506849315068 2.5  C 9.07077625570776 2.5  8.77283105022831 2.37630208333333  8.52123287671233 2.12890625  C 8.26963470319635 1.88151041666667  8.14383561643836 1.58854166666667  8.14383561643836 1.25  C 8.14383561643836 0.911458333333329  8.26963470319635 0.618489583333329  8.52123287671233 0.371093749999999  C 8.77283105022831 0.123697916666665  9.07077625570776 0  9.41506849315068 0  L 19.5849315068493 0  C 19.9292237442922 0  20.2271689497717 0.123697916666665  20.4787671232877 0.371093749999999  C 20.7303652968037 0.618489583333329  20.8561643835616 0.911458333333329  20.8561643835616 1.25  C 20.8561643835616 1.58854166666667  20.7303652968037 1.88151041666667  20.4787671232877 2.12890625  C 20.2271689497717 2.37630208333333  19.9292237442922 2.5  19.5849315068493 2.5  L 18.313698630137 2.5  L 18.313698630137 10.29296875  Z M 13.2287671232877 11.015625  L 12.8315068493151 11.62109375  L 7.42876712328767 20  L 21.5712328767123 20  L 16.1684931506849 11.62109375  L 15.7712328767123 11.015625  L 15.7712328767123 10.29296875  L 15.7712328767123 2.5  L 13.2287671232877 2.5  L 13.2287671232877 10.29296875  L 13.2287671232877 11.015625  Z " fill-rule="nonzero" fill="#d9001b" stroke="none" transform="matrix(1 0 0 1 2096 1495 )" />
  </g>
</svg>