<?xml version="1.0" encoding="utf-8"?>
<svg version="1.1" xmlns:xlink="http://www.w3.org/1999/xlink" width="15px" height="20px" xmlns="http://www.w3.org/2000/svg">
  <g transform="matrix(1 0 0 1 -2242 -1500 )">
    <path d="M 2249.5 1519.03692846835  C 2246.7 1514.40734059591  2242.5 1511.62958787244  2242.5 1507  C 2242.5 1504.58571428571  2243.9 1500.5  2249.5 1500.5  C 2255.1 1500.5  2256.5 1504.58571428571  2256.5 1507  C 2256.5 1511.62958787244  2252.3 1514.40734059591  2249.5 1519.03692846835  Z " fill-rule="nonzero" fill="#d9001b" stroke="none" />
    <path d="M 2249.5 1520  C 2246.5 1515  2242 1512  2242 1507  C 2242 1504.4  2243.5 1500  2249.5 1500  C 2255.5 1500  2257 1504.4  2257 1507  C 2257 1512  2252.5 1515  2249.5 1520  Z M 2249.5 1518.07385693671  C 2252.1 1513.81468119182  2256 1511.25917574489  2256 1507  C 2256 1504.77142857143  2254.7 1501  2249.5 1501  C 2244.3 1501  2243 1504.77142857143  2243 1507  C 2243 1511.25917574489  2246.9 1513.81468119182  2249.5 1518.07385693671  Z " fill-rule="nonzero" fill="#aaaaaa" stroke="none" />
  </g>
</svg>