<?xml version="1.0" encoding="utf-8"?>
<svg version="1.1" xmlns:xlink="http://www.w3.org/1999/xlink" width="15px" height="20px" xmlns="http://www.w3.org/2000/svg">
  <g transform="matrix(1 0 0 1 -2302 -1500 )">
    <path d="M 2309.5 1519.03692846835  C 2306.7 1514.40734059591  2302.5 1511.62958787244  2302.5 1507  C 2302.5 1504.58571428571  2303.9 1500.5  2309.5 1500.5  C 2315.1 1500.5  2316.5 1504.58571428571  2316.5 1507  C 2316.5 1511.62958787244  2312.3 1514.40734059591  2309.5 1519.03692846835  Z " fill-rule="nonzero" fill="#009dd9" stroke="none" fill-opacity="0" />
    <path d="M 2309.5 1520  C 2306.5 1515  2302 1512  2302 1507  C 2302 1504.4  2303.5 1500  2309.5 1500  C 2315.5 1500  2317 1504.4  2317 1507  C 2317 1512  2312.5 1515  2309.5 1520  Z M 2309.5 1518.07385693671  C 2312.1 1513.81468119182  2316 1511.25917574489  2316 1507  C 2316 1504.77142857143  2314.7 1501  2309.5 1501  C 2304.3 1501  2303 1504.77142857143  2303 1507  C 2303 1511.25917574489  2306.9 1513.81468119182  2309.5 1518.07385693671  Z " fill-rule="nonzero" fill="#aaaaaa" stroke="none" />
  </g>
</svg>