<?xml version="1.0" encoding="utf-8"?>
<svg version="1.1" xmlns:xlink="http://www.w3.org/1999/xlink" width="11px" height="20px" xmlns="http://www.w3.org/2000/svg">
  <defs>
    <mask fill="white" id="clip4">
      <path d="M 10.4365256124722 5.08413461538462  C 10.5916852264291 5.08413461538462  10.7305122494432 5.14423076923077  10.8530066815145 5.26442307692308  C 11 5.42467948717949  11.02858203415 5.60096153846154  10.9387527839644 5.79326923076923  L 4.32405345211581 19.6995192307692  C 4.21789161098738 19.8998397435897  4.0463994060876 20  3.80957683741648 20  C 3.77691165553081 20  3.71974758723088 19.9919871794872  3.6380846325167 19.9759615384615  C 3.4992576095026 19.9358974358974  3.39513734224202 19.8597756410256  3.32572383073497 19.7475961538462  C 3.25631031922791 19.6354166666667  3.23793615441722 19.5152243589744  3.2706013363029 19.3870192307692  L 5.6837416481069 9.67548076923077  L 0.710467706013363 10.8894230769231  C 0.677802524127691 10.8974358974359  0.628804751299183 10.9014423076923  0.56347438752784 10.9014423076923  C 0.416481069042316 10.9014423076923  0.289903489235338 10.8573717948718  0.183741648106904 10.7692307692308  C 0.0367483296213808 10.6490384615385  -0.0163325909428359 10.4927884615385  0.0244988864142539 10.3004807692308  L 2.48663697104677 0.384615384615385  C 2.51930215293244 0.272435897435896  2.58463251670379 0.180288461538463  2.6826280623608 0.108173076923077  C 2.78062360801782 0.0360576923076916  2.89495174461767 0  3.02561247216036 0  L 7.04342984409799 0  C 7.19858945805494 0  7.32925018559762 0.0500801282051255  7.43541202672606 0.150240384615385  C 7.54157386785449 0.250400641025641  7.59465478841871 0.368589743589742  7.59465478841871 0.504807692307692  C 7.59465478841871 0.568910256410256  7.57423904974016 0.641025641025641  7.53340757238307 0.721153846153846  L 5.43875278396437 6.28605769230769  L 10.2895322939866 5.10817307692308  C 10.354862657758 5.09214743589743  10.4038604305865 5.08413461538462  10.4365256124722 5.08413461538462  Z " fill-rule="evenodd" />
    </mask>
  </defs>
  <g transform="matrix(1 0 0 1 -2340 -1540 )">
    <path d="M 10.4365256124722 5.08413461538462  C 10.5916852264291 5.08413461538462  10.7305122494432 5.14423076923077  10.8530066815145 5.26442307692308  C 11 5.42467948717949  11.02858203415 5.60096153846154  10.9387527839644 5.79326923076923  L 4.32405345211581 19.6995192307692  C 4.21789161098738 19.8998397435897  4.0463994060876 20  3.80957683741648 20  C 3.77691165553081 20  3.71974758723088 19.9919871794872  3.6380846325167 19.9759615384615  C 3.4992576095026 19.9358974358974  3.39513734224202 19.8597756410256  3.32572383073497 19.7475961538462  C 3.25631031922791 19.6354166666667  3.23793615441722 19.5152243589744  3.2706013363029 19.3870192307692  L 5.6837416481069 9.67548076923077  L 0.710467706013363 10.8894230769231  C 0.677802524127691 10.8974358974359  0.628804751299183 10.9014423076923  0.56347438752784 10.9014423076923  C 0.416481069042316 10.9014423076923  0.289903489235338 10.8573717948718  0.183741648106904 10.7692307692308  C 0.0367483296213808 10.6490384615385  -0.0163325909428359 10.4927884615385  0.0244988864142539 10.3004807692308  L 2.48663697104677 0.384615384615385  C 2.51930215293244 0.272435897435896  2.58463251670379 0.180288461538463  2.6826280623608 0.108173076923077  C 2.78062360801782 0.0360576923076916  2.89495174461767 0  3.02561247216036 0  L 7.04342984409799 0  C 7.19858945805494 0  7.32925018559762 0.0500801282051255  7.43541202672606 0.150240384615385  C 7.54157386785449 0.250400641025641  7.59465478841871 0.368589743589742  7.59465478841871 0.504807692307692  C 7.59465478841871 0.568910256410256  7.57423904974016 0.641025641025641  7.53340757238307 0.721153846153846  L 5.43875278396437 6.28605769230769  L 10.2895322939866 5.10817307692308  C 10.354862657758 5.09214743589743  10.4038604305865 5.08413461538462  10.4365256124722 5.08413461538462  Z " fill-rule="nonzero" fill="#000000" stroke="none" fill-opacity="0" transform="matrix(1 0 0 1 2340 1540 )" />
    <path d="M 10.4365256124722 5.08413461538462  C 10.5916852264291 5.08413461538462  10.7305122494432 5.14423076923077  10.8530066815145 5.26442307692308  C 11 5.42467948717949  11.02858203415 5.60096153846154  10.9387527839644 5.79326923076923  L 4.32405345211581 19.6995192307692  C 4.21789161098738 19.8998397435897  4.0463994060876 20  3.80957683741648 20  C 3.77691165553081 20  3.71974758723088 19.9919871794872  3.6380846325167 19.9759615384615  C 3.4992576095026 19.9358974358974  3.39513734224202 19.8597756410256  3.32572383073497 19.7475961538462  C 3.25631031922791 19.6354166666667  3.23793615441722 19.5152243589744  3.2706013363029 19.3870192307692  L 5.6837416481069 9.67548076923077  L 0.710467706013363 10.8894230769231  C 0.677802524127691 10.8974358974359  0.628804751299183 10.9014423076923  0.56347438752784 10.9014423076923  C 0.416481069042316 10.9014423076923  0.289903489235338 10.8573717948718  0.183741648106904 10.7692307692308  C 0.0367483296213808 10.6490384615385  -0.0163325909428359 10.4927884615385  0.0244988864142539 10.3004807692308  L 2.48663697104677 0.384615384615385  C 2.51930215293244 0.272435897435896  2.58463251670379 0.180288461538463  2.6826280623608 0.108173076923077  C 2.78062360801782 0.0360576923076916  2.89495174461767 0  3.02561247216036 0  L 7.04342984409799 0  C 7.19858945805494 0  7.32925018559762 0.0500801282051255  7.43541202672606 0.150240384615385  C 7.54157386785449 0.250400641025641  7.59465478841871 0.368589743589742  7.59465478841871 0.504807692307692  C 7.59465478841871 0.568910256410256  7.57423904974016 0.641025641025641  7.53340757238307 0.721153846153846  L 5.43875278396437 6.28605769230769  L 10.2895322939866 5.10817307692308  C 10.354862657758 5.09214743589743  10.4038604305865 5.08413461538462  10.4365256124722 5.08413461538462  Z " stroke-width="2" stroke="#aaaaaa" fill="none" transform="matrix(1 0 0 1 2340 1540 )" mask="url(#clip4)" />
  </g>
</svg>