<?xml version="1.0" encoding="utf-8"?>
<svg version="1.1" xmlns:xlink="http://www.w3.org/1999/xlink" width="17px" height="30px" xmlns="http://www.w3.org/2000/svg">
  <g transform="matrix(1 0 0 1 -2102 -1575 )">
    <path d="M 10.0439453125 20.6584821428571  C 10.4313151041667 21.2165178571429  10.625 21.8303571428571  10.625 22.5  C 10.625 23.3928571428571  10.3151041666667 24.1517857142857  9.6953125 24.7767857142857  C 9.07552083333333 25.4017857142857  8.32291666666667 25.7142857142857  7.4375 25.7142857142857  C 6.55208333333333 25.7142857142857  5.79947916666667 25.4017857142857  5.1796875 24.7767857142857  C 4.55989583333333 24.1517857142857  4.25 23.3928571428571  4.25 22.5  C 4.25 21.8303571428571  4.44368489583333 21.2165178571429  4.8310546875 20.6584821428571  C 5.21842447916667 20.1004464285714  5.73307291666667 19.7042410714286  6.375 19.4698660714286  L 6.375 4.28571428571429  L 8.5 4.28571428571429  L 8.5 19.4698660714286  C 9.14192708333333 19.7042410714286  9.65657552083333 20.1004464285714  10.0439453125 20.6584821428571  Z M 11.19775390625 26.2918526785714  C 12.2325846354167 25.2483258928571  12.75 23.984375  12.75 22.5  C 12.75 21.640625  12.5618489583333 20.8370535714286  12.185546875 20.0892857142857  C 11.8092447916667 19.3415178571429  11.2890625 18.7165178571429  10.625 18.2142857142857  L 10.625 5.35714285714286  C 10.625 4.46428571428571  10.3151041666667 3.70535714285714  9.6953125 3.08035714285714  C 9.07552083333333 2.45535714285714  8.32291666666667 2.14285714285714  7.4375 2.14285714285714  C 6.55208333333333 2.14285714285714  5.79947916666667 2.45535714285714  5.1796875 3.08035714285714  C 4.55989583333333 3.70535714285714  4.25 4.46428571428571  4.25 5.35714285714286  L 4.25 18.2142857142857  C 3.5859375 18.7165178571429  3.06575520833333 19.3415178571429  2.689453125 20.0892857142857  C 2.31315104166667 20.8370535714286  2.125 21.640625  2.125 22.5  C 2.125 23.984375  2.64241536458333 25.2483258928571  3.67724609375 26.2918526785714  C 4.71207682291667 27.3353794642857  5.96549479166667 27.8571428571429  7.4375 27.8571428571429  C 8.90950520833333 27.8571428571429  10.1629231770833 27.3353794642857  11.19775390625 26.2918526785714  Z M 12.75 17.2600446428571  C 14.1666666666667 18.7220982142857  14.875 20.46875  14.875 22.5  C 14.875 24.5647321428571  14.1472981770833 26.3309151785714  12.69189453125 27.7985491071429  C 11.2364908854167 29.2661830357143  9.48502604166667 30  7.4375 30  C 5.38997395833333 30  3.63850911458333 29.2661830357143  2.18310546875 27.7985491071429  C 0.727701822916667 26.3309151785714  0 24.5647321428571  0 22.5  C 0 20.46875  0.708333333333333 18.7220982142857  2.125 17.2600446428571  L 2.125 5.35714285714286  C 2.125 3.87276785714286  2.64241536458333 2.60881696428571  3.67724609375 1.56529017857143  C 4.71207682291667 0.521763392857144  5.96549479166667 0  7.4375 0  C 8.90950520833333 0  10.1629231770833 0.521763392857144  11.19775390625 1.56529017857143  C 12.2325846354167 2.60881696428571  12.75 3.87276785714286  12.75 5.35714285714286  L 12.75 17.2600446428571  Z M 13.8125 12.8571428571429  L 17 12.8571428571429  L 17 15  L 13.8125 15  L 13.8125 12.8571428571429  Z M 13.8125 8.57142857142857  L 17 8.57142857142857  L 17 10.7142857142857  L 13.8125 10.7142857142857  L 13.8125 8.57142857142857  Z M 13.8125 4.28571428571429  L 17 4.28571428571429  L 17 6.42857142857143  L 13.8125 6.42857142857143  L 13.8125 4.28571428571429  Z " fill-rule="nonzero" fill="#d9001b" stroke="none" transform="matrix(1 0 0 1 2102 1575 )" />
  </g>
</svg>