<?xml version="1.0" encoding="utf-8"?>
<svg version="1.1" xmlns:xlink="http://www.w3.org/1999/xlink" width="25px" height="15px" xmlns="http://www.w3.org/2000/svg">
  <g transform="matrix(1 0 0 1 -1580 -2217 )">
    <path d="M 13.568115234375 9.826171875  C 13.897705078125 9.087890625  14.0625 8.3125  14.0625 7.5  C 14.0625 6.6875  13.897705078125 5.912109375  13.568115234375 5.173828125  C 13.238525390625 4.435546875  12.79296875 3.796875  12.2314453125 3.2578125  C 11.669921875 2.71875  11.004638671875 2.291015625  10.235595703125 1.974609375  C 9.466552734375 1.658203125  8.65885416666667 1.5  7.8125 1.5  C 6.96614583333333 1.5  6.158447265625 1.658203125  5.389404296875 1.974609375  C 4.620361328125 2.291015625  3.955078125 2.71875  3.3935546875 3.2578125  C 2.83203125 3.796875  2.386474609375 4.435546875  2.056884765625 5.173828125  C 1.727294921875 5.912109375  1.5625 6.6875  1.5625 7.5  C 1.5625 8.3125  1.727294921875 9.087890625  2.056884765625 9.826171875  C 2.386474609375 10.564453125  2.83203125 11.203125  3.3935546875 11.7421875  C 3.955078125 12.28125  4.620361328125 12.708984375  5.389404296875 13.025390625  C 6.158447265625 13.341796875  6.96614583333333 13.5  7.8125 13.5  C 8.65885416666667 13.5  9.466552734375 13.341796875  10.235595703125 13.025390625  C 11.004638671875 12.708984375  11.669921875 12.28125  12.2314453125 11.7421875  C 12.79296875 11.203125  13.238525390625 10.564453125  13.568115234375 9.826171875  Z M 22.943115234375 9.826171875  C 23.272705078125 9.087890625  23.4375 8.3125  23.4375 7.5  C 23.4375 6.6875  23.272705078125 5.912109375  22.943115234375 5.173828125  C 22.613525390625 4.435546875  22.16796875 3.796875  21.6064453125 3.2578125  C 21.044921875 2.71875  20.379638671875 2.291015625  19.610595703125 1.974609375  C 18.841552734375 1.658203125  18.0338541666667 1.5  17.1875 1.5  L 12.4755859375 1.5  C 13.4440104166667 2.203125  14.2110188802083 3.078125  14.776611328125 4.125  C 15.3422037760417 5.171875  15.625 6.296875  15.625 7.5  C 15.625 8.703125  15.3422037760417 9.828125  14.776611328125 10.875  C 14.2110188802083 11.921875  13.4440104166667 12.796875  12.4755859375 13.5  L 17.1875 13.5  C 18.0338541666667 13.5  18.841552734375 13.341796875  19.610595703125 13.025390625  C 20.379638671875 12.708984375  21.044921875 12.28125  21.6064453125 11.7421875  C 22.16796875 11.203125  22.613525390625 10.564453125  22.943115234375 9.826171875  Z M 24.37744140625 4.587890625  C 24.79248046875 5.513671875  25 6.484375  25 7.5  C 25 8.515625  24.79248046875 9.486328125  24.37744140625 10.412109375  C 23.96240234375 11.337890625  23.406982421875 12.134765625  22.711181640625 12.802734375  C 22.015380859375 13.470703125  21.185302734375 14.00390625  20.220947265625 14.40234375  C 19.256591796875 14.80078125  18.2454427083333 15  17.1875 15  L 7.8125 15  C 6.75455729166667 15  5.743408203125 14.80078125  4.779052734375 14.40234375  C 3.814697265625 14.00390625  2.984619140625 13.470703125  2.288818359375 12.802734375  C 1.593017578125 12.134765625  1.03759765625 11.337890625  0.62255859375 10.412109375  C 0.20751953125 9.486328125  0 8.515625  0 7.5  C 0 6.484375  0.20751953125 5.513671875  0.62255859375 4.587890625  C 1.03759765625 3.662109375  1.593017578125 2.865234375  2.288818359375 2.197265625  C 2.984619140625 1.529296875  3.814697265625 0.99609375  4.779052734375 0.597656249999999  C 5.743408203125 0.19921875  6.75455729166667 0  7.8125 0  L 17.1875 0  C 18.2454427083333 0  19.256591796875 0.19921875  20.220947265625 0.597656249999999  C 21.185302734375 0.99609375  22.015380859375 1.529296875  22.711181640625 2.197265625  C 23.406982421875 2.865234375  23.96240234375 3.662109375  24.37744140625 4.587890625  Z " fill-rule="nonzero" fill="#aaaaaa" stroke="none" transform="matrix(1 0 0 1 1580 2217 )" />
  </g>
</svg>