<?xml version="1.0" encoding="utf-8"?>
<svg version="1.1" xmlns:xlink="http://www.w3.org/1999/xlink" width="24px" height="25px" xmlns="http://www.w3.org/2000/svg">
  <g transform="matrix(1 0 0 1 -2099 -2162 )">
    <path d="M 6.12259615384615 18.8585069444444  C 6.48317307692308 19.2201967592593  6.66346153846154 19.6566358024691  6.66346153846154 20.1678240740741  C 6.66346153846154 20.679012345679  6.48317307692308 21.1154513888889  6.12259615384615 21.4771412037037  C 5.76201923076923 21.8388310185185  5.32692307692308 22.0196759259259  4.81730769230769 22.0196759259259  C 4.31730769230769 22.0196759259259  3.88461538461539 21.8364197530864  3.51923076923077 21.4699074074074  C 3.15384615384615 21.1033950617284  2.97115384615385 20.6693672839506  2.97115384615385 20.1678240740741  C 2.97115384615385 19.6566358024691  3.15144230769231 19.2201967592593  3.51201923076923 18.8585069444444  C 3.87259615384615 18.4968171296296  4.30769230769231 18.3159722222222  4.81730769230769 18.3159722222222  C 5.32692307692308 18.3159722222222  5.76201923076923 18.4968171296296  6.12259615384615 18.8585069444444  Z M 13.3052884615385 21.8388310185185  C 13.6658653846154 22.2005208333333  13.8461538461538 22.6369598765432  13.8461538461538 23.1481481481481  C 13.8461538461538 23.6593364197531  13.6658653846154 24.095775462963  13.3052884615385 24.4574652777778  C 12.9447115384615 24.8191550925926  12.5096153846154 25  12 25  C 11.4903846153846 25  11.0552884615385 24.8191550925926  10.6947115384615 24.4574652777778  C 10.3341346153846 24.095775462963  10.1538461538462 23.6593364197531  10.1538461538462 23.1481481481481  C 10.1538461538462 22.6369598765432  10.3341346153846 22.2005208333333  10.6947115384615 21.8388310185185  C 11.0552884615385 21.4771412037037  11.4903846153846 21.2962962962963  12 21.2962962962963  C 12.5096153846154 21.2962962962963  12.9447115384615 21.4771412037037  13.3052884615385 21.8388310185185  Z M 3.15144230769231 11.6536458333333  C 3.51201923076923 12.0153356481481  3.69230769230769 12.451774691358  3.69230769230769 12.962962962963  C 3.69230769230769 13.4741512345679  3.51201923076923 13.9105902777778  3.15144230769231 14.2722800925926  C 2.79086538461538 14.6339699074074  2.35576923076923 14.8148148148148  1.84615384615385 14.8148148148148  C 1.33653846153846 14.8148148148148  0.901442307692308 14.6339699074074  0.540865384615385 14.2722800925926  C 0.180288461538462 13.9105902777778  0 13.4741512345679  0 12.962962962963  C 0 12.451774691358  0.180288461538462 12.0153356481481  0.540865384615385 11.6536458333333  C 0.901442307692308 11.2919560185185  1.33653846153846 11.1111111111111  1.84615384615385 11.1111111111111  C 2.35576923076923 11.1111111111111  2.79086538461538 11.2919560185185  3.15144230769231 11.6536458333333  Z M 20.4879807692308 18.8585069444444  C 20.8485576923077 19.2201967592593  21.0288461538462 19.6566358024691  21.0288461538462 20.1678240740741  C 21.0288461538462 20.6693672839506  20.8461538461539 21.1033950617284  20.4807692307692 21.4699074074074  C 20.1153846153846 21.8364197530864  19.6826923076923 22.0196759259259  19.1826923076923 22.0196759259259  C 18.6730769230769 22.0196759259259  18.2379807692308 21.8388310185185  17.8774038461538 21.4771412037037  C 17.5168269230769 21.1154513888889  17.3365384615385 20.679012345679  17.3365384615385 20.1678240740741  C 17.3365384615385 19.6566358024691  17.5168269230769 19.2201967592593  17.8774038461538 18.8585069444444  C 18.2379807692308 18.4968171296296  18.6730769230769 18.3159722222222  19.1826923076923 18.3159722222222  C 19.6923076923077 18.3159722222222  20.1274038461538 18.4968171296296  20.4879807692308 18.8585069444444  Z M 6.44711538461539 4.12326388888889  C 6.89903846153846 4.57658179012345  7.125 5.12152777777778  7.125 5.75810185185185  C 7.125 6.39467592592593  6.89903846153846 6.93962191358024  6.44711538461539 7.39293981481481  C 5.99519230769231 7.84625771604938  5.45192307692308 8.07291666666667  4.81730769230769 8.07291666666667  C 4.18269230769231 8.07291666666667  3.63942307692308 7.84625771604938  3.1875 7.39293981481481  C 2.73557692307692 6.93962191358024  2.50961538461538 6.39467592592593  2.50961538461538 5.75810185185185  C 2.50961538461538 5.12152777777778  2.73557692307692 4.57658179012345  3.1875 4.12326388888889  C 3.63942307692308 3.66994598765432  4.18269230769231 3.44328703703704  4.81730769230769 3.44328703703704  C 5.45192307692308 3.44328703703704  5.99519230769231 3.66994598765432  6.44711538461539 4.12326388888889  Z M 23.4591346153846 11.6536458333333  C 23.8197115384615 12.0153356481481  24 12.451774691358  24 12.962962962963  C 24 13.4741512345679  23.8197115384615 13.9105902777778  23.4591346153846 14.2722800925926  C 23.0985576923077 14.6339699074074  22.6634615384615 14.8148148148148  22.1538461538462 14.8148148148148  C 21.6442307692308 14.8148148148148  21.2091346153846 14.6339699074074  20.8485576923077 14.2722800925926  C 20.4879807692308 13.9105902777778  20.3076923076923 13.4741512345679  20.3076923076923 12.962962962963  C 20.3076923076923 12.451774691358  20.4879807692308 12.0153356481481  20.8485576923077 11.6536458333333  C 21.2091346153846 11.2919560185185  21.6442307692308 11.1111111111111  22.1538461538462 11.1111111111111  C 22.6634615384615 11.1111111111111  23.0985576923077 11.2919560185185  23.4591346153846 11.6536458333333  Z M 13.9615384615385 0.810185185185186  C 14.5 1.35030864197531  14.7692307692308 2.00617283950617  14.7692307692308 2.77777777777778  C 14.7692307692308 3.54938271604938  14.5 4.20524691358024  13.9615384615385 4.74537037037037  C 13.4230769230769 5.28549382716049  12.7692307692308 5.55555555555556  12 5.55555555555556  C 11.2307692307692 5.55555555555556  10.5769230769231 5.28549382716049  10.0384615384615 4.74537037037037  C 9.5 4.20524691358024  9.23076923076923 3.54938271604938  9.23076923076923 2.77777777777778  C 9.23076923076923 2.00617283950617  9.5 1.35030864197531  10.0384615384615 0.810185185185186  C 10.5769230769231 0.270061728395063  11.2307692307692 0  12 0  C 12.7692307692308 0  13.4230769230769 0.270061728395063  13.9615384615385 0.810185185185186  Z M 21.4615384615385 3.47222222222222  C 22.0961538461538 4.1087962962963  22.4134615384615 4.8707561728395  22.4134615384615 5.75810185185185  C 22.4134615384615 6.65509259259259  22.0961538461538 7.4194637345679  21.4615384615385 8.05121527777778  C 20.8269230769231 8.68296682098765  20.0673076923077 8.99884259259259  19.1826923076923 8.99884259259259  C 18.2884615384615 8.99884259259259  17.5264423076923 8.68296682098765  16.8966346153846 8.05121527777778  C 16.2668269230769 7.4194637345679  15.9519230769231 6.65509259259259  15.9519230769231 5.75810185185185  C 15.9519230769231 4.8707561728395  16.2668269230769 4.1087962962963  16.8966346153846 3.47222222222222  C 17.5264423076923 2.83564814814815  18.2884615384615 2.51736111111111  19.1826923076923 2.51736111111111  C 20.0673076923077 2.51736111111111  20.8269230769231 2.83564814814815  21.4615384615385 3.47222222222222  Z " fill-rule="nonzero" fill="#000000" stroke="none" transform="matrix(1 0 0 1 2099 2162 )" />
  </g>
</svg>