<?xml version="1.0" encoding="utf-8"?>
<svg version="1.1" xmlns:xlink="http://www.w3.org/1999/xlink" width="27px" height="25px" xmlns="http://www.w3.org/2000/svg">
  <g transform="matrix(1 0 0 1 -251 -724 )">
    <path d="M 25.6224489795918 4.99674479166667  C 26.0330132052821 5.15950520833333  26.3517406962785 5.39279513888889  26.578631452581 5.69661458333333  C 27.0108043217287 6.31510416666667  27.1080432172869 7.01497395833333  26.8703481392557 7.79622395833333  L 22.4135654261705 22.5423177083333  C 22.2082833133253 23.2367621527778  21.7950180072029 23.8199869791667  21.1737695078031 24.2919921875  C 20.5525210084034 24.7639973958333  19.890756302521 25  19.1884753901561 25  L 4.22989195678271 25  C 3.39795918367347 25  2.59573829531813 24.7097439236111  1.82322929171669 24.1292317708333  C 1.05072028811525 23.5487196180556  0.513205282112845 22.8352864583333  0.210684273709484 21.9889322916667  C -0.0486194477791116 21.2619357638889  -0.0594237695078031 20.5729166666667  0.178271308523409 19.921875  C 0.178271308523409 19.8784722222222  0.194477791116447 19.7319878472222  0.226890756302521 19.482421875  C 0.259303721488595 19.2328559027778  0.280912364945978 19.0321180555556  0.29171668667467 18.8802083333333  C 0.302521008403361 18.7934027777778  0.286314525810324 18.6767578125  0.243097238895558 18.5302734375  C 0.199879951980792 18.3837890625  0.183673469387755 18.2779947916667  0.194477791116447 18.212890625  C 0.21608643457383 18.0935329861111  0.259303721488595 17.9796006944444  0.324129651860744 17.87109375  C 0.388955582232893 17.7625868055556  0.478091236494598 17.6350911458333  0.591536614645858 17.4886067708333  C 0.704981992797119 17.3421223958333  0.794117647058823 17.2146267361111  0.858943577430972 17.1061197916667  C 1.10744297719088 16.6937934027778  1.35054021608643 16.1973741319444  1.58823529411765 15.6168619791667  C 1.82593037214886 15.0363498263889  1.98799519807923 14.5399305555556  2.07442977190876 14.1276041666667  C 2.10684273709484 14.0190972222222  2.10954381752701 13.8563368055556  2.08253301320528 13.6393229166667  C 2.05552220888355 13.4223090277778  2.05282112845138 13.2703993055556  2.07442977190876 13.18359375  C 2.10684273709484 13.0642361111111  2.19867947178872 12.9123263888889  2.3499399759904 12.7278645833333  C 2.50120048019208 12.5434027777778  2.59303721488595 12.4186197916667  2.62545018007203 12.353515625  C 2.85234093637455 11.962890625  3.07923169267707 11.4637586805556  3.30612244897959 10.8561197916667  C 3.53301320528211 10.2484809027778  3.66806722689076 9.76019965277778  3.71128451380552 9.39127604166667  C 3.72208883553421 9.29361979166667  3.70858343337335 9.12000868055556  3.67076830732293 8.87044270833333  C 3.63295318127251 8.62087673611111  3.63565426170468 8.46896701388889  3.67887154861945 8.41471354166667  C 3.72208883553421 8.27365451388889  3.84093637454982 8.10818142361111  4.03541416566627 7.91829427083333  C 4.22989195678271 7.72840711805556  4.34873949579832 7.60633680555556  4.39195678271309 7.55208333333333  C 4.59723889555822 7.26996527777778  4.82683073229292 6.8115234375  5.08073229291717 6.1767578125  C 5.33463385354142 5.5419921875  5.48319327731093 5.01844618055556  5.52641056422569 4.60611979166667  C 5.53721488595438 4.51931423611111  5.52100840336135 4.38096788194444  5.47779111644658 4.19108072916667  C 5.43457382953181 4.00119357638889  5.42376950780312 3.857421875  5.4453781512605 3.759765625  C 5.46698679471789 3.67296006944444  5.515606242497 3.57530381944444  5.59123649459784 3.466796875  C 5.66686674669868 3.35828993055556  5.7641056422569 3.23350694444444  5.88295318127251 3.09244791666667  C 6.00180072028812 2.95138888888889  6.09363745498199 2.83745659722222  6.15846338535414 2.75065104166667  C 6.24489795918367 2.62044270833333  6.33403361344538 2.45496961805556  6.42587034813926 2.25423177083333  C 6.51770708283313 2.05349392361111  6.59873949579832 1.86360677083333  6.66896758703481 1.6845703125  C 6.73919567827131 1.50553385416667  6.82563025210084 1.31022135416667  6.92827130852341 1.0986328125  C 7.03091236494598 0.887044270833334  7.13625450180072 0.713433159722221  7.24429771908763 0.577799479166666  C 7.35234093637455 0.442165798611108  7.49549819927971 0.314670138888887  7.67376950780312 0.1953125  C 7.85204081632653 0.0759548611111077  8.04651860744298 0.0135633680555552  8.25720288115246 0.00813802083333426  C 8.46788715486194 0.00271267361110772  8.72448979591837 0.0325520833333343  9.02701080432173 0.09765625  L 9.01080432172869 0.146484375  C 9.42136854741897 0.048828125  9.6968787515006 0  9.83733493397359 0  L 22.1704681872749 0  C 22.9699879951981 0  23.5858343337335 0.303819444444442  24.0180072028812 0.911458333333334  C 24.4501800720288 1.51909722222222  24.547418967587 2.22439236111111  24.3097238895558 3.02734375  L 19.8691476590636 17.7734375  C 19.4801920768307 19.0646701388889  19.09393757503 19.8974609375  18.7103841536615 20.2718098958333  C 18.3268307322929 20.6461588541667  17.6326530612245 20.8333333333333  16.6278511404562 20.8333333333333  L 2.54441776710684 20.8333333333333  C 2.25270108043217 20.8333333333333  2.04741896758703 20.9147135416667  1.92857142857143 21.0774739583333  C 1.80972388955582 21.2510850694444  1.80432172869148 21.484375  1.91236494597839 21.77734375  C 2.17166866746699 22.5368923611111  2.94957983193277 22.9166666666667  4.24609843937575 23  L 19.2046818727491 23  C 19.5180072028812 22.9166666666667  19.8205282112845 22.8325737847222  20.1122448979592 22.6643880208333  C 20.4039615846339 22.4962022569444  20.593037214886 22.2710503472222  20.6794717887155 21.9889322916667  L 25.5414165666267 5.92447916666667  C 25.6170468187275 5.68576388888889  25.6440576230492 5.37651909722222  25.6224489795918 4.99674479166667  Z M 9.67527010804322 4.6875  L 9.33493397358944 5.72916666666667  C 9.29171668667467 5.87022569444444  9.30252100840336 5.99229600694444  9.36734693877551 6.09537760416667  C 9.43217286914766 6.19845920138889  9.54021608643458 6.25  9.69147659063625 6.25  L 19.5450180072029 6.25  C 19.6854741896759 6.25  19.8232292917167 6.19845920138889  19.9582833133253 6.09537760416667  C 20.093337334934 5.99229600694444  20.1824729891957 5.87022569444444  20.2256902761104 5.72916666666667  L 20.5660264105642 4.6875  C 20.609243697479 4.54644097222222  20.5984393757503 4.42437065972222  20.5336134453782 4.3212890625  C 20.468787515006 4.21820746527778  20.3607442977191 4.16666666666667  20.2094837935174 4.16666666666667  L 10.3559423769508 4.16666666666667  C 10.2154861944778 4.16666666666667  10.077731092437 4.21820746527778  9.94267707082833 4.3212890625  C 9.80762304921969 4.42437065972222  9.71848739495798 4.54644097222222  9.67527010804322 4.6875  Z M 8.33013205282113 8.85416666666667  L 7.98979591836735 9.89583333333333  C 7.94657863145258 10.0368923611111  7.95738295318127 10.1589626736111  8.02220888355342 10.2620442708333  C 8.08703481392557 10.3651258680556  8.19507803121248 10.4166666666667  8.34633853541417 10.4166666666667  L 18.1998799519808 10.4166666666667  C 18.3403361344538 10.4166666666667  18.4780912364946 10.3651258680556  18.6131452581032 10.2620442708333  C 18.7481992797119 10.1589626736111  18.8373349339736 10.0368923611111  18.8805522208884 9.89583333333333  L 19.2208883553421 8.85416666666667  C 19.2641056422569 8.71310763888889  19.2533013205282 8.59103732638889  19.1884753901561 8.48795572916667  C 19.1236494597839 8.38487413194444  19.015606242497 8.33333333333333  18.8643457382953 8.33333333333333  L 9.01080432172869 8.33333333333333  C 8.8703481392557 8.33333333333333  8.73259303721489 8.38487413194444  8.59753901560624 8.48795572916667  C 8.4624849939976 8.59103732638889  8.3733493397359 8.71310763888889  8.33013205282113 8.85416666666667  Z " fill-rule="nonzero" fill="#000000" stroke="none" transform="matrix(1 0 0 1 251 724 )" />
  </g>
</svg>