<?xml version="1.0" encoding="utf-8"?>
<svg version="1.1" xmlns:xlink="http://www.w3.org/1999/xlink" width="30px" height="25px" xmlns="http://www.w3.org/2000/svg">
  <g transform="matrix(1 0 0 1 -358 -724 )">
    <path d="M 10.7142857142857 2.08333333333333  L 10.7142857142857 4.16666666666667  L 19.2857142857143 4.16666666666667  L 19.2857142857143 2.08333333333333  L 10.7142857142857 2.08333333333333  Z M 18.75 14.5833333333333  L 30 14.5833333333333  L 30 22.3958333333333  C 30 23.1119791666667  29.7377232142857 23.7250434027778  29.2131696428571 24.2350260416667  C 28.6886160714286 24.7450086805556  28.0580357142857 25  27.3214285714286 25  L 2.67857142857143 25  C 1.94196428571429 25  1.31138392857143 24.7450086805556  0.786830357142857 24.2350260416667  C 0.262276785714286 23.7250434027778  0 23.1119791666667  0 22.3958333333333  L 0 14.5833333333333  L 11.25 14.5833333333333  L 11.25 17.1875  C 11.25 17.4696180555556  11.3560267857143 17.7137586805556  11.5680803571429 17.919921875  C 11.7801339285714 18.1260850694444  12.03125 18.2291666666667  12.3214285714286 18.2291666666667  L 17.6785714285714 18.2291666666667  C 17.96875 18.2291666666667  18.2198660714286 18.1260850694444  18.4319196428571 17.919921875  C 18.6439732142857 17.7137586805556  18.75 17.4696180555556  18.75 17.1875  L 18.75 14.5833333333333  Z M 12.8571428571429 14.5833333333333  L 17.1428571428571 14.5833333333333  L 17.1428571428571 16.6666666666667  L 12.8571428571429 16.6666666666667  L 12.8571428571429 14.5833333333333  Z M 29.2131696428571 4.931640625  C 29.7377232142857 5.44162326388889  30 6.0546875  30 6.77083333333333  L 30 13  L 0 13  L 0 6.77083333333333  C 0 6.0546875  0.262276785714286 5.44162326388889  0.786830357142857 4.931640625  C 1.31138392857143 4.42165798611111  1.94196428571429 4.16666666666667  2.67857142857143 4.16666666666667  L 8.57142857142857 4.16666666666667  L 8.57142857142857 1.5625  C 8.57142857142857 1.12847222222222  8.72767857142857 0.759548611111108  9.04017857142857 0.455729166666666  C 9.35267857142857 0.151909722222224  9.73214285714286 0  10.1785714285714 0  L 19.8214285714286 0  C 20.2678571428571 0  20.6473214285714 0.151909722222224  20.9598214285714 0.455729166666666  C 21.2723214285714 0.759548611111108  21.4285714285714 1.12847222222222  21.4285714285714 1.5625  L 21.4285714285714 4.16666666666667  L 27.3214285714286 4.16666666666667  C 28.0580357142857 4.16666666666667  28.6886160714286 4.42165798611111  29.2131696428571 4.931640625  Z " fill-rule="nonzero" fill="#000000" stroke="none" transform="matrix(1 0 0 1 358 724 )" />
  </g>
</svg>