<?xml version="1.0" encoding="utf-8"?>
<svg version="1.1" xmlns:xlink="http://www.w3.org/1999/xlink" width="34px" height="25px" xmlns="http://www.w3.org/2000/svg">
  <g transform="matrix(1 0 0 1 -883 -260 )">
    <path d="M 33.3858064516129 3.45117845117845  C 33.7952688172043 3.84399551066218  34 4.32098765432099  34 4.88215488215488  C 34 5.44332210998877  33.7952688172043 5.92031425364759  33.3858064516129 6.31313131313131  L 17.5045161290323 21.5488215488215  L 14.5212903225806 24.4107744107744  C 14.1118279569892 24.8035914702581  13.614623655914 25  13.0296774193548 25  C 12.4447311827957 25  11.9475268817204 24.8035914702581  11.538064516129 24.4107744107744  L 8.55483870967742 21.5488215488215  L 0.614193548387097 13.9309764309764  C 0.204731182795699 13.5381593714927  0 13.0611672278339  0 12.5  C 0 11.9388327721661  0.204731182795699 11.4618406285073  0.614193548387097 11.0690235690236  L 3.59741935483871 8.20707070707071  C 4.00688172043011 7.81425364758698  4.50408602150538 7.61784511784512  5.08903225806452 7.61784511784512  C 5.67397849462366 7.61784511784512  6.17118279569893 7.81425364758698  6.58064516129032 8.20707070707071  L 13.0296774193548 14.4149831649832  L 27.4193548387097 0.589225589225589  C 27.8288172043011 0.196408529741862  28.3260215053764 0  28.9109677419355 0  C 29.4959139784946 0  29.9931182795699 0.196408529741862  30.4025806451613 0.589225589225589  L 33.3858064516129 3.45117845117845  Z " fill-rule="nonzero" fill="#000000" stroke="none" transform="matrix(1 0 0 1 883 260 )" />
  </g>
</svg>