<?xml version="1.0" encoding="utf-8"?>
<svg version="1.1" xmlns:xlink="http://www.w3.org/1999/xlink" width="23px" height="15px" xmlns="http://www.w3.org/2000/svg">
  <g transform="matrix(1 0 0 1 -882 -491 )">
    <path d="M 12.482666015625 9.826171875  C 12.785888671875 9.087890625  12.9375 8.3125  12.9375 7.5  C 12.9375 6.6875  12.785888671875 5.912109375  12.482666015625 5.173828125  C 12.179443359375 4.435546875  11.76953125 3.796875  11.2529296875 3.2578125  C 10.736328125 2.71875  10.124267578125 2.291015625  9.416748046875 1.974609375  C 8.709228515625 1.658203125  7.96614583333333 1.5  7.1875 1.5  C 6.40885416666667 1.5  5.665771484375 1.658203125  4.958251953125 1.974609375  C 4.250732421875 2.291015625  3.638671875 2.71875  3.1220703125 3.2578125  C 2.60546875 3.796875  2.195556640625 4.435546875  1.892333984375 5.173828125  C 1.589111328125 5.912109375  1.4375 6.6875  1.4375 7.5  C 1.4375 8.3125  1.589111328125 9.087890625  1.892333984375 9.826171875  C 2.195556640625 10.564453125  2.60546875 11.203125  3.1220703125 11.7421875  C 3.638671875 12.28125  4.250732421875 12.708984375  4.958251953125 13.025390625  C 5.665771484375 13.341796875  6.40885416666667 13.5  7.1875 13.5  C 7.96614583333333 13.5  8.709228515625 13.341796875  9.416748046875 13.025390625  C 10.124267578125 12.708984375  10.736328125 12.28125  11.2529296875 11.7421875  C 11.76953125 11.203125  12.179443359375 10.564453125  12.482666015625 9.826171875  Z M 21.107666015625 9.826171875  C 21.410888671875 9.087890625  21.5625 8.3125  21.5625 7.5  C 21.5625 6.6875  21.410888671875 5.912109375  21.107666015625 5.173828125  C 20.804443359375 4.435546875  20.39453125 3.796875  19.8779296875 3.2578125  C 19.361328125 2.71875  18.749267578125 2.291015625  18.041748046875 1.974609375  C 17.334228515625 1.658203125  16.5911458333333 1.5  15.8125 1.5  L 11.4775390625 1.5  C 12.3684895833333 2.203125  13.0741373697917 3.078125  13.594482421875 4.125  C 14.1148274739583 5.171875  14.375 6.296875  14.375 7.5  C 14.375 8.703125  14.1148274739583 9.828125  13.594482421875 10.875  C 13.0741373697917 11.921875  12.3684895833333 12.796875  11.4775390625 13.5  L 15.8125 13.5  C 16.5911458333333 13.5  17.334228515625 13.341796875  18.041748046875 13.025390625  C 18.749267578125 12.708984375  19.361328125 12.28125  19.8779296875 11.7421875  C 20.39453125 11.203125  20.804443359375 10.564453125  21.107666015625 9.826171875  Z M 22.42724609375 4.587890625  C 22.80908203125 5.513671875  23 6.484375  23 7.5  C 23 8.515625  22.80908203125 9.486328125  22.42724609375 10.412109375  C 22.04541015625 11.337890625  21.534423828125 12.134765625  20.894287109375 12.802734375  C 20.254150390625 13.470703125  19.490478515625 14.00390625  18.603271484375 14.40234375  C 17.716064453125 14.80078125  16.7858072916667 15  15.8125 15  L 7.1875 15  C 6.21419270833333 15  5.283935546875 14.80078125  4.396728515625 14.40234375  C 3.509521484375 14.00390625  2.745849609375 13.470703125  2.105712890625 12.802734375  C 1.465576171875 12.134765625  0.95458984375 11.337890625  0.57275390625 10.412109375  C 0.19091796875 9.486328125  0 8.515625  0 7.5  C 0 6.484375  0.19091796875 5.513671875  0.57275390625 4.587890625  C 0.95458984375 3.662109375  1.465576171875 2.865234375  2.105712890625 2.197265625  C 2.745849609375 1.529296875  3.509521484375 0.99609375  4.396728515625 0.597656249999999  C 5.283935546875 0.19921875  6.21419270833333 0  7.1875 0  L 15.8125 0  C 16.7858072916667 0  17.716064453125 0.19921875  18.603271484375 0.597656249999999  C 19.490478515625 0.99609375  20.254150390625 1.529296875  20.894287109375 2.197265625  C 21.534423828125 2.865234375  22.04541015625 3.662109375  22.42724609375 4.587890625  Z " fill-rule="nonzero" fill="#aaaaaa" stroke="none" transform="matrix(1 0 0 1 882 491 )" />
  </g>
</svg>