<?xml version="1.0" encoding="utf-8"?>
<svg version="1.1" xmlns:xlink="http://www.w3.org/1999/xlink" width="58px" height="50px" xmlns="http://www.w3.org/2000/svg">
  <g transform="matrix(1 0 0 1 -984 -670 )">
    <path d="M 34.3619791666667 44.7358630952381  C 34.8151041666667 44.4010416666667  35.0416666666667 43.9236111111111  35.0416666666667 43.3035714285714  L 35 41.2202380952381  L 35 23.8095238095238  L 35.0416666666667 17  L 22.9583333333333 17  L 23 23.8095238095238  L 23 41.2202380952381  L 22.9583333333333 43.3035714285714  C 22.9583333333333 43.9236111111111  23.1848958333333 44.4010416666667  23.6380208333333 44.7358630952381  C 24.0911458333333 45.0706845238095  24.6701388888889 45.2380952380952  25.375 45.2380952380952  L 32.625 45.2380952380952  C 33.3298611111111 45.2380952380952  33.9088541666667 45.0706845238095  34.3619791666667 44.7358630952381  Z M 15.2552083333333 10.8630952380952  C 15.9600694444444 11.5575396825397  16.8159722222222 11.9047619047619  17.8229166666667 11.9047619047619  L 25.1861979166667 11.9047619047619  L 20.4283854166667 5.91517857142857  C 19.7738715277778 5.14632936507936  18.9053819444444 4.76190476190476  17.8229166666667 4.76190476190476  C 16.8159722222222 4.76190476190476  15.9600694444444 5.10912698412698  15.2552083333333 5.80357142857143  C 14.5503472222222 6.49801587301587  14.1979166666667 7.34126984126984  14.1979166666667 8.33333333333333  C 14.1979166666667 9.32539682539682  14.5503472222222 10.1686507936508  15.2552083333333 10.8630952380952  Z M 42.7447916666667 10.8630952380952  C 43.4496527777778 10.1686507936508  43.8020833333333 9.32539682539682  43.8020833333333 8.33333333333333  C 43.8020833333333 7.34126984126984  43.4496527777778 6.49801587301587  42.7447916666667 5.80357142857143  C 42.0399305555556 5.10912698412698  41.1840277777778 4.76190476190476  40.1770833333333 4.76190476190476  C 39.0946180555556 4.76190476190476  38.2261284722222 5.14632936507936  37.5716145833333 5.91517857142857  L 32.8515625 11.9047619047619  L 40.1770833333333 11.9047619047619  C 41.1840277777778 11.9047619047619  42.0399305555556 11.5575396825397  42.7447916666667 10.8630952380952  Z M 57.66015625 17.0014880952381  C 57.88671875 17.2247023809524  58 17.5099206349206  58 17.8571428571429  L 58 29.7619047619048  C 58 30.109126984127  57.88671875 30.3943452380952  57.66015625 30.6175595238095  C 57.43359375 30.8407738095238  57.1440972222222 30.952380952381  56.7916666666667 30.952380952381  L 53 30.952380952381  L 53 46.4285714285714  C 53.1666666666667 47.4206349206349  52.8142361111111 48.2638888888889  52.109375 48.9583333333333  C 51.4045138888889 49.6527777777778  50.5486111111111 50  49.5416666666667 50  L 8.45833333333333 50  C 7.45138888888889 50  6.59548611111111 49.6527777777778  5.890625 48.9583333333333  C 5.18576388888889 48.2638888888889  4.83333333333333 47.4206349206349  5 46.4285714285714  L 5 30.952380952381  L 1.20833333333333 30.952380952381  C 0.855902777777778 30.952380952381  0.56640625 30.8407738095238  0.33984375 30.6175595238095  C 0.11328125 30.3943452380952  0 30.109126984127  0 29.7619047619048  L 0 17.8571428571429  C 0 17.5099206349206  0.11328125 17.2247023809524  0.33984375 17.0014880952381  C 0.56640625 16.7782738095238  0.855902777777778 16.6666666666667  1.20833333333333 17  L 17.8229166666667 17  C 15.4817708333333 16.6666666666667  13.4867621527778 15.8544146825397  11.837890625 14.2299107142857  C 10.1890190972222 12.6054067460317  9.36458333333333 10.639880952381  9.36458333333333 8.33333333333333  C 9.36458333333333 6.02678571428572  10.1890190972222 4.06125992063491  11.837890625 2.43675595238095  C 13.4867621527778 0.812251984126983  15.4817708333333 0  17.8229166666667 0  C 20.5164930555556 0  22.6310763888889 0.954861111111105  24.1666666666667 2.86458333333333  L 29 9.00297619047619  L 33.8333333333333 2.86458333333333  C 35.3689236111111 0.954861111111105  37.4835069444445 0  40.1770833333333 0  C 42.5182291666667 0  44.5132378472222 0.812251984126983  46.162109375 2.43675595238095  C 47.8109809027778 4.06125992063491  48.6354166666667 6.02678571428572  48.6354166666667 8.33333333333333  C 48.6354166666667 10.639880952381  47.8109809027778 12.6054067460317  46.162109375 14.2299107142857  C 44.5132378472222 15.8544146825397  42.5182291666667 16.6666666666667  40.1770833333333 17  L 56.7916666666667 17  C 57.1440972222222 16.6666666666667  57.43359375 16.7782738095238  57.66015625 17.0014880952381  Z " fill-rule="nonzero" fill="#000000" stroke="none" transform="matrix(1 0 0 1 984 670 )" />
  </g>
</svg>