<?xml version="1.0" encoding="utf-8"?>
<svg version="1.1" xmlns:xlink="http://www.w3.org/1999/xlink" width="50px" height="50px" xmlns="http://www.w3.org/2000/svg">
  <g transform="matrix(1 0 0 1 -909 -670 )">
    <path d="M 47.6283482142857 38.8950892857143  C 48.3723958333333 39.155505952381  49.1629464285714 39.2857142857143  50 39.2857142857143  L 50 50  L 0 50  L 0 39.2857142857143  C 0.837053571428572 39.2857142857143  1.62760416666667 39.155505952381  2.37165178571429 38.8950892857143  C 3.1156994047619 38.6346726190476  3.66443452380952 38.37890625  4.01785714285714 38.1277901785714  C 4.37127976190476 37.8766741071429  4.80840773809524 37.5279017857143  5.32924107142857 37.0814732142857  C 5.88727678571429 36.5792410714286  6.36625744047619 36.225818452381  6.76618303571429 36.0212053571429  C 7.16610863095238 35.8165922619048  7.69159226190476 35.7142857142857  8.34263392857143 35.7142857142857  C 8.7890625 35.7142857142857  9.19828869047619 35.7793898809524  9.5703125 35.9095982142857  C 9.94233630952381 36.039806547619  10.2306547619048 36.1793154761905  10.4352678571429 36.328125  C 10.639880952381 36.4769345238095  10.9468005952381 36.7280505952381  11.3560267857143 37.0814732142857  C 11.8954613095238 37.5465029761905  12.3325892857143 37.8999255952381  12.6674107142857 38.1417410714286  C 13.0022321428571 38.383556547619  13.5416666666667 38.6346726190476  14.2857142857143 38.8950892857143  C 15.0297619047619 39.155505952381  15.8296130952381 39.2857142857143  16.6852678571429 39.2857142857143  C 17.5223214285714 39.2857142857143  18.3128720238095 39.1508556547619  19.0569196428571 38.8811383928571  C 19.8009672619048 38.6114211309524  20.3404017857143 38.3603050595238  20.6752232142857 38.1277901785714  C 21.0100446428571 37.895275297619  21.4564732142857 37.5465029761905  22.0145089285714 37.0814732142857  C 22.4051339285714 36.7280505952381  22.7074032738095 36.4769345238095  22.9213169642857 36.328125  C 23.1352306547619 36.1793154761905  23.4235491071429 36.039806547619  23.7862723214286 35.9095982142857  C 24.1489955357143 35.7793898809524  24.5535714285714 35.7142857142857  25 35.7142857142857  C 25.6510416666667 35.7142857142857  26.1765252976191 35.8165922619048  26.5764508928571 36.0212053571429  C 26.9763764880952 36.225818452381  27.4553571428571 36.5792410714286  28.0133928571429 37.0814732142857  C 28.5342261904762 37.5279017857143  28.9713541666667 37.8766741071429  29.3247767857143 38.1277901785714  C 29.6781994047619 38.37890625  30.2269345238095 38.6346726190476  30.9709821428571 38.8950892857143  C 31.7150297619048 39.155505952381  32.5055803571429 39.2857142857143  33.3426339285714 39.2857142857143  C 34.1796875 39.2857142857143  34.9702380952381 39.155505952381  35.7142857142857 38.8950892857143  C 36.4583333333333 38.6346726190476  37.007068452381 38.37890625  37.3604910714286 38.1277901785714  C 37.7139136904762 37.8766741071429  38.1510416666667 37.5279017857143  38.671875 37.0814732142857  C 39.2299107142857 36.5792410714286  39.7088913690476 36.225818452381  40.1088169642857 36.0212053571429  C 40.5087425595238 35.8165922619048  41.0342261904762 35.7142857142857  41.6852678571429 35.7142857142857  C 42.3177083333333 35.7142857142857  42.8338913690476 35.8165922619048  43.2338169642857 36.0212053571429  C 43.6337425595238 36.225818452381  44.1127232142857 36.5792410714286  44.6707589285714 37.0814732142857  C 45.1915922619048 37.5279017857143  45.6287202380952 37.8766741071429  45.9821428571429 38.1277901785714  C 46.3355654761905 38.37890625  46.8843005952381 38.6346726190476  47.6283482142857 38.8950892857143  Z M 48.4375 26.5625  C 49.4791666666667 27.6041666666667  50 28.8690476190476  50 30.3571428571429  L 50 35.7142857142857  C 49.5535714285714 35.7142857142857  49.1443452380952 35.649181547619  48.7723214285714 35.5189732142857  C 48.4002976190476 35.3887648809524  48.1119791666667 35.249255952381  47.9073660714286 35.1004464285714  C 47.7027529761905 34.9516369047619  47.3958333333333 34.7005208333333  46.9866071428571 34.3470982142857  C 46.4471726190476 33.882068452381  46.0100446428571 33.5286458333333  45.6752232142857 33.2868303571429  C 45.3404017857143 33.0450148809524  44.8009672619048 32.7938988095238  44.0569196428571 32.5334821428571  C 43.3128720238095 32.2730654761905  42.5223214285714 32.1428571428571  41.6852678571429 32.1428571428571  C 40.8296130952381 32.1428571428571  40.0297619047619 32.2730654761905  39.2857142857143 32.5334821428571  C 38.5416666666667 32.7938988095238  38.0022321428571 33.0450148809524  37.6674107142857 33.2868303571429  C 37.3325892857143 33.5286458333333  36.8954613095238 33.882068452381  36.3560267857143 34.3470982142857  C 35.9468005952381 34.7005208333333  35.639880952381 34.9516369047619  35.4352678571429 35.1004464285714  C 35.2306547619048 35.249255952381  34.9423363095238 35.3887648809524  34.5703125 35.5189732142857  C 34.1982886904762 35.649181547619  33.7890625 35.7142857142857  33.3426339285714 35.7142857142857  C 32.6915922619048 35.7142857142857  32.1661086309524 35.6119791666667  31.7661830357143 35.4073660714286  C 31.3662574404762 35.2027529761905  30.8872767857143 34.8493303571429  30.3292410714286 34.3470982142857  C 29.7898065476191 33.882068452381  29.3526785714286 33.5286458333333  29.0178571428571 33.2868303571429  C 28.6830357142857 33.0450148809524  28.1436011904762 32.7938988095238  27.3995535714286 32.5334821428571  C 26.655505952381 32.2730654761905  25.8556547619048 32.1428571428571  25 32.1428571428571  C 24.1629464285714 32.1428571428571  23.3723958333333 32.2777157738095  22.6283482142857 32.5474330357143  C 21.8843005952381 32.817150297619  21.3448660714286 33.0682663690476  21.0100446428571 33.30078125  C 20.6752232142857 33.5332961309524  20.2287946428571 33.882068452381  19.6707589285714 34.3470982142857  C 19.2801339285714 34.7005208333333  18.9778645833333 34.9516369047619  18.7639508928571 35.1004464285714  C 18.550037202381 35.249255952381  18.26171875 35.3887648809524  17.8989955357143 35.5189732142857  C 17.5362723214286 35.649181547619  17.1316964285714 35.7142857142857  16.6852678571429 35.7142857142857  C 16.0342261904762 35.7142857142857  15.5087425595238 35.6119791666667  15.1088169642857 35.4073660714286  C 14.7088913690476 35.2027529761905  14.2299107142857 34.8493303571429  13.671875 34.3470982142857  C 13.1510416666667 33.9006696428571  12.7139136904762 33.5518973214286  12.3604910714286 33.30078125  C 12.007068452381 33.0496651785714  11.4583333333333 32.7938988095238  10.7142857142857 32.5334821428571  C 9.9702380952381 32.2730654761905  9.1796875 32.1428571428571  8.34263392857143 32.1428571428571  C 7.48697916666667 32.1428571428571  6.68712797619048 32.2730654761905  5.94308035714286 32.5334821428571  C 5.19903273809524 32.7938988095238  4.65959821428571 33.0450148809524  4.32477678571429 33.2868303571429  C 3.98995535714286 33.5286458333333  3.55282738095238 33.882068452381  3.01339285714286 34.3470982142857  C 2.45535714285714 34.8493303571429  1.97637648809524 35.2027529761905  1.57645089285714 35.4073660714286  C 1.17652529761905 35.6119791666667  0.651041666666667 35.7142857142857  0 35.7142857142857  L 0 30.3571428571429  C 0 28.8690476190476  0.520833333333333 27.6041666666667  1.5625 26.5625  C 2.60416666666667 25.5208333333333  3.86904761904762 25  5.35714285714286 25  L 8 25  L 8 12.5  L 15 12.5  L 15 25  L 22 25  L 22 12.5  L 28 12.5  L 28 25  L 35 25  L 35 12.5  L 42 12.5  L 42 25  L 44.6428571428571 25  C 46.1309523809524 25  47.3958333333333 25.5208333333333  48.4375 26.5625  Z M 13.0301339285714 2.06473214285715  C 13.8671875 3.44122023809524  14.2857142857143 4.83630952380952  14.2857142857143 6.25  C 14.2857142857143 7.68229166666666  13.9508928571429 8.78441220238095  13.28125 9.55636160714285  C 12.6116071428571 10.3283110119048  11.7559523809524 10.7142857142857  10.7142857142857 10.7142857142857  C 9.72842261904762 10.7142857142857  8.88671875 10.3655133928571  8.18917410714286 9.66796875  C 7.49162946428571 8.97042410714285  7.14285714285714 8.12872023809524  7.14285714285714 7.14285714285715  C 7.14285714285714 6.60342261904762  7.23121279761905 6.12909226190476  7.40792410714286 5.71986607142857  C 7.58463541666667 5.31063988095238  7.80319940476191 4.99441964285715  8.06361607142857 4.77120535714286  C 8.32403273809524 4.54799107142857  8.61235119047619 4.2875744047619  8.92857142857143 3.98995535714286  C 9.24479166666667 3.69233630952381  9.53311011904762 3.39936755952381  9.79352678571429 3.11104910714286  C 10.053943452381 2.8227306547619  10.2725074404762 2.40885416666666  10.44921875 1.86941964285715  C 10.6259300595238 1.32998511904762  10.7142857142857 0.706845238095238  10.7142857142857 0  C 11.421130952381 0  12.1930803571429 0.688244047619052  13.0301339285714 2.06473214285715  Z M 27.3158482142857 2.06473214285715  C 28.1529017857143 3.44122023809524  28.5714285714286 4.83630952380952  28.5714285714286 6.25  C 28.5714285714286 7.68229166666666  28.2366071428571 8.78441220238095  27.5669642857143 9.55636160714285  C 26.8973214285714 10.3283110119048  26.0416666666667 10.7142857142857  25 10.7142857142857  C 24.0141369047619 10.7142857142857  23.1724330357143 10.3655133928571  22.4748883928571 9.66796875  C 21.77734375 8.97042410714285  21.4285714285714 8.12872023809524  21.4285714285714 7.14285714285715  C 21.4285714285714 6.60342261904762  21.5169270833333 6.12909226190476  21.6936383928571 5.71986607142857  C 21.870349702381 5.31063988095238  22.0889136904762 4.99441964285715  22.3493303571429 4.77120535714286  C 22.6097470238095 4.54799107142857  22.8980654761905 4.2875744047619  23.2142857142857 3.98995535714286  C 23.530505952381 3.69233630952381  23.8188244047619 3.39936755952381  24.0792410714286 3.11104910714286  C 24.3396577380952 2.8227306547619  24.5582217261905 2.40885416666666  24.7349330357143 1.86941964285715  C 24.9116443452381 1.32998511904762  25 0.706845238095238  25 0  C 25.7068452380952 0  26.4787946428571 0.688244047619052  27.3158482142857 2.06473214285715  Z M 41.6015625 2.06473214285715  C 42.4386160714286 3.44122023809524  42.8571428571429 4.83630952380952  42.8571428571429 6.25  C 42.8571428571429 7.68229166666666  42.5223214285714 8.78441220238095  41.8526785714286 9.55636160714285  C 41.1830357142857 10.3283110119048  40.327380952381 10.7142857142857  39.2857142857143 10.7142857142857  C 38.2998511904762 10.7142857142857  37.4581473214286 10.3655133928571  36.7606026785714 9.66796875  C 36.0630580357143 8.97042410714285  35.7142857142857 8.12872023809524  35.7142857142857 7.14285714285715  C 35.7142857142857 6.60342261904762  35.8026413690476 6.12909226190476  35.9793526785714 5.71986607142857  C 36.1560639880952 5.31063988095238  36.3746279761905 4.99441964285715  36.6350446428571 4.77120535714286  C 36.8954613095238 4.54799107142857  37.1837797619048 4.2875744047619  37.5 3.98995535714286  C 37.8162202380952 3.69233630952381  38.1045386904762 3.39936755952381  38.3649553571429 3.11104910714286  C 38.6253720238095 2.8227306547619  38.8439360119048 2.40885416666666  39.0206473214286 1.86941964285715  C 39.1973586309524 1.32998511904762  39.2857142857143 0.706845238095238  39.2857142857143 0  C 39.9925595238095 0  40.7645089285714 0.688244047619052  41.6015625 2.06473214285715  Z " fill-rule="nonzero" fill="#000000" stroke="none" transform="matrix(1 0 0 1 909 670 )" />
  </g>
</svg>