<?xml version="1.0" encoding="utf-8"?>
<svg version="1.1" xmlns:xlink="http://www.w3.org/1999/xlink" width="58px" height="50px" xmlns="http://www.w3.org/2000/svg">
  <g transform="matrix(1 0 0 1 -826 -670 )">
    <path d="M 30.4241071428571 49.4140625  C 30.0357142857143 49.8046875  29.5610119047619 50  29 50  C 28.4389880952381 50  27.9642857142857 49.8046875  27.5758928571429 49.4140625  L 7.37946428571429 29.8177083333333  C 7.16369047619048 29.6440972222222  6.86700148809524 29.3619791666667  6.48939732142857 28.9713541666667  C 6.11179315476191 28.5807291666667  5.51302083333333 27.8700086805556  4.69308035714286 26.8391927083333  C 3.87313988095238 25.8083767361111  3.13950892857143 24.7504340277778  2.4921875 23.6653645833333  C 1.84486607142857 22.5802951388889  1.26767113095238 21.2673611111111  0.760602678571429 19.7265625  C 0.253534226190476 18.1857638888889  0 16.6883680555556  0 15.234375  C 0 10.4600694444444  1.37016369047619 6.72743055555555  4.11049107142857 4.03645833333333  C 6.85081845238095 1.34548611111111  10.6376488095238 0  15.4709821428571 0  C 16.8087797619048 0  18.1735491071429 0.233289930555552  19.5652901785714 0.699869791666669  C 20.95703125 1.16644965277777  22.2516741071429 1.79578993055555  23.44921875 2.587890625  C 24.6467633928571 3.37999131944444  25.6770833333333 4.12326388888888  26.5401785714286 4.81770833333333  C 27.4032738095238 5.51215277777777  28.2232142857143 6.25  29 7.03125  C 29.7767857142857 6.25  30.5967261904762 5.51215277777777  31.4598214285714 4.81770833333333  C 32.3229166666667 4.12326388888888  33.3532366071429 3.37999131944444  34.55078125 2.587890625  C 35.7483258928571 1.79578993055555  37.04296875 1.16644965277777  38.4347098214286 0.699869791666669  C 39.8264508928571 0.233289930555552  41.1912202380952 0  42.5290178571429 0  C 47.3623511904762 0  51.1491815476191 1.34548611111111  53.8895089285714 4.03645833333333  C 56.6298363095238 6.72743055555555  58 10.4600694444444  58 15.234375  C 58 20.0303819444444  55.5293898809524 24.9131944444444  50.5881696428571 29.8828125  L 30.4241071428571 49.4140625  Z " fill-rule="nonzero" fill="#000000" stroke="none" transform="matrix(1 0 0 1 826 670 )" />
  </g>
</svg>