<?xml version="1.0" encoding="utf-8"?>
<svg version="1.1" xmlns:xlink="http://www.w3.org/1999/xlink" width="33px" height="35px" xmlns="http://www.w3.org/2000/svg">
  <g transform="matrix(1 0 0 1 -768 -1150 )">
    <path d="M 32.2713994565217 14.0292041078306  C 32.7571331521739 14.5908215661104  33 15.2685066324347  33 16.0622593068036  L 33 18.9377406931964  C 33 19.7314933675653  32.7571331521739 20.4091784338896  32.2713994565217 20.9707958921694  C 31.7856657608696 21.5324133504493  31.1542119565217 21.8132220795892  30.3770380434783 21.8132220795892  L 14.5944293478261 21.8132220795892  L 21.1630434782609 28.4178433889602  C 21.7309782608696 28.9569961489089  22.0149456521739 29.6309370988447  22.0149456521739 30.4396662387677  C 22.0149456521739 31.2483953786906  21.7309782608696 31.9223363286264  21.1630434782609 32.4614890885751  L 19.4816576086957 34.1688061617458  C 18.9286684782609 34.7229353872486  18.2561141304348 35  17.4639945652174 35  C 16.6868206521739 35  16.0067934782609 34.7229353872486  15.4239130434783 34.1688061617458  L 0.829483695652174 19.5218228498074  C 0.276494565217392 18.9676936243047  0 18.2937526743688  0 17.5  C 0 16.7212237911853  0.276494565217392 16.0397946084724  0.829483695652174 15.4557124518614  L 15.4239130434783 0.853658536585367  C 15.991847826087 0.284552845528453  16.671875 0  17.4639945652174 0  C 18.2411684782609 0  18.913722826087 0.284552845528453  19.4816576086957 0.853658536585367  L 21.1630434782609 2.51604621309371  C 21.7309782608696 3.08515190415062  22.0149456521739 3.7665810868635  22.0149456521739 4.56033376123235  C 22.0149456521739 5.35408643560119  21.7309782608696 6.03551561831407  21.1630434782609 6.60462130937099  L 14.5944293478261 13.1867779204108  L 30.3770380434783 13.1867779204108  C 31.1542119565217 13.1867779204108  31.7856657608696 13.4675866495507  32.2713994565217 14.0292041078306  Z " fill-rule="nonzero" fill="#000000" stroke="none" transform="matrix(1 0 0 1 768 1150 )" />
  </g>
</svg>