<?xml version="1.0" encoding="utf-8"?>
<svg version="1.1" xmlns:xlink="http://www.w3.org/1999/xlink" width="33px" height="35px" xmlns="http://www.w3.org/2000/svg">
  <g transform="matrix(1 0 0 1 -963 -1150 )">
    <path d="M 32.3984375 0.588942307692309  C 32.7994791666667 0.981570512820509  33 1.45833333333333  33 2.01923076923077  L 33 25.5769230769231  C 33 26.2780448717949  32.7565104166667 26.9020432692308  32.26953125 27.4489182692308  C 31.7825520833333 27.9957932692308  31.1666666666667 28.4199719551282  30.421875 28.7214543269231  C 29.6770833333333 29.0229366987179  28.9358723958333 29.2472956730769  28.1982421875 29.39453125  C 27.4606119791667 29.5417668269231  26.76953125 29.6153846153846  26.125 29.6153846153846  C 25.48046875 29.6153846153846  24.7893880208333 29.5417668269231  24.0517578125 29.39453125  C 23.3141276041667 29.2472956730769  22.5729166666667 29.0229366987179  21.828125 28.7214543269231  C 21.0833333333333 28.4199719551282  20.4674479166667 27.9957932692308  19.98046875 27.4489182692308  C 19.4934895833333 26.9020432692308  19.25 26.2780448717949  19.25 25.5769230769231  C 19.25 24.8758012820513  19.4934895833333 24.2518028846154  19.98046875 23.7049278846154  C 20.4674479166667 23.1580528846154  21.0833333333333 22.7338741987179  21.828125 22.4323918269231  C 22.5729166666667 22.1309094551282  23.3141276041667 21.9065504807692  24.0517578125 21.7593149038462  C 24.7893880208333 21.6120793269231  25.48046875 21.5384615384615  26.125 21.5384615384615  C 27.62890625 21.5384615384615  29.00390625 21.8118990384615  30 22.3587740384615  L 30 11.0637019230769  L 14 16.0486778846154  L 14 30.9615384615385  C 13.75 31.6626602564103  13.5065104166667 32.2866586538462  13.01953125 32.8335336538462  C 12.5325520833333 33.3804086538462  11.9166666666667 33.8045873397436  11.171875 34.1060697115385  C 10.4270833333333 34.4075520833333  9.68587239583333 34.6319110576923  8.9482421875 34.7791466346154  C 8.21061197916667 34.9263822115385  7.51953125 35  6.875 35  C 6.23046875 35  5.53938802083333 34.9263822115385  4.8017578125 34.7791466346154  C 4.06412760416667 34.6319110576923  3.32291666666667 34.4075520833333  2.578125 34.1060697115385  C 1.83333333333333 33.8045873397436  1.21744791666667 33.3804086538462  0.73046875 32.8335336538462  C 0.243489583333333 32.2866586538462  0 31.6626602564103  0 30.9615384615385  C 0 30.2604166666667  0.243489583333333 29.6364182692308  0.73046875 29.0895432692308  C 1.21744791666667 28.5426682692308  1.83333333333333 28.1184895833333  2.578125 27.8170072115385  C 3.32291666666667 27.5155248397436  4.06412760416667 27.2911658653846  4.8017578125 27.1439302884615  C 5.53938802083333 26.9966947115385  6.23046875 26.9230769230769  6.875 26.9230769230769  C 8.37890625 26.9230769230769  9.75390625 27.1965144230769  11 27.7433894230769  L 11 7.40384615384616  C 11 6.96915064102564  11.1360677083333 6.57301682692308  11.408203125 6.21544471153846  C 11.6803385416667 5.85787259615384  12.03125 5.60897435897435  12.4609375 5.46875  L 30.3359375 0.0841346153846151  C 30.5078125 0.0280448717948717  30.7083333333333 0  30.9375 0  C 31.5104166666667 0  31.9973958333333 0.196314102564102  32.3984375 0.588942307692309  Z " fill-rule="nonzero" fill="#000000" stroke="none" transform="matrix(1 0 0 1 963 1150 )" />
  </g>
</svg>