<?xml version="1.0" encoding="utf-8"?>
<svg version="1.1" xmlns:xlink="http://www.w3.org/1999/xlink" width="33px" height="35px" xmlns="http://www.w3.org/2000/svg">
  <g transform="matrix(1 0 0 1 -1023 -1150 )">
    <path d="M 32.591796875 28.51953125  C 32.8639322916667 28.8658854166667  33 29.2760416666667  33 29.75  L 33 33.25  C 33 33.7239583333333  32.8639322916667 34.1341145833333  32.591796875 34.48046875  C 32.3196614583333 34.8268229166667  31.9973958333333 35  31.625 35  L 1.375 35  C 1.00260416666667 35  0.680338541666667 34.8268229166667  0.408203125 34.48046875  C 0.136067708333333 34.1341145833333  0 33.7239583333333  0 33.25  L 0 29.75  C 0 29.2760416666667  0.136067708333333 28.8658854166667  0.408203125 28.51953125  C 0.680338541666667 28.1731770833333  1.00260416666667 28  1.375 28  L 31.625 28  C 31.9973958333333 28  32.3196614583333 28.1731770833333  32.591796875 28.51953125  Z M 32.591796875 14.51953125  C 32.8639322916667 14.8658854166667  33 15.2760416666667  33 15.75  L 33 19.25  C 33 19.7239583333333  32.8639322916667 20.1341145833333  32.591796875 20.48046875  C 32.3196614583333 20.8268229166667  31.9973958333333 21  31.625 21  L 1.375 21  C 1.00260416666667 21  0.680338541666667 20.8268229166667  0.408203125 20.48046875  C 0.136067708333333 20.1341145833333  0 19.7239583333333  0 19.25  L 0 15.75  C 0 15.2760416666667  0.136067708333333 14.8658854166667  0.408203125 14.51953125  C 0.680338541666667 14.1731770833333  1.00260416666667 14  1.375 14  L 31.625 14  C 31.9973958333333 14  32.3196614583333 14.1731770833333  32.591796875 14.51953125  Z M 32.591796875 0.519531250000002  C 32.8639322916667 0.865885416666664  33 1.27604166666666  33 1.75  L 33 5.25  C 33 5.72395833333333  32.8639322916667 6.13411458333333  32.591796875 6.48046875  C 32.3196614583333 6.82682291666666  31.9973958333333 7  31.625 7  L 1.375 7  C 1.00260416666667 7  0.680338541666667 6.82682291666666  0.408203125 6.48046875  C 0.136067708333333 6.13411458333333  0 5.72395833333333  0 5.25  L 0 1.75  C 0 1.27604166666666  0.136067708333333 0.865885416666664  0.408203125 0.519531250000002  C 0.680338541666667 0.173177083333331  1.00260416666667 0  1.375 0  L 31.625 0  C 31.9973958333333 0  32.3196614583333 0.173177083333331  32.591796875 0.519531250000002  Z " fill-rule="nonzero" fill="#000000" stroke="none" transform="matrix(1 0 0 1 1023 1150 )" />
  </g>
</svg>