<?xml version="1.0" encoding="utf-8"?>
<svg version="1.1" xmlns:xlink="http://www.w3.org/1999/xlink" width="36px" height="23px" xmlns="http://www.w3.org/2000/svg">
  <g transform="matrix(1 0 0 1 -1926 -1206 )">
    <path d="M 0.896484375 15.965234375  C 0.298828125 14.545703125  0 13.0572916666667  0 11.5  C 0 9.94270833333333  0.298828125 8.454296875  0.896484375 7.034765625  C 1.494140625 5.615234375  2.2939453125 4.393359375  3.2958984375 3.369140625  C 4.2978515625 2.344921875  5.4931640625 1.52734375  6.8818359375 0.916406249999999  C 8.2705078125 0.305468750000001  9.7265625 0  11.25 0  L 24.75 0  C 26.2734375 0  27.7294921875 0.305468750000001  29.1181640625 0.916406249999999  C 30.5068359375 1.52734375  31.7021484375 2.344921875  32.7041015625 3.369140625  C 33.7060546875 4.393359375  34.505859375 5.615234375  35.103515625 7.034765625  C 35.701171875 8.454296875  36 9.94270833333333  36 11.5  C 36 13.0572916666667  35.701171875 14.545703125  35.103515625 15.965234375  C 34.505859375 17.384765625  33.7060546875 18.606640625  32.7041015625 19.630859375  C 31.7021484375 20.655078125  30.5068359375 21.47265625  29.1181640625 22.08359375  C 27.7294921875 22.69453125  26.2734375 23  24.75 23  L 11.25 23  C 9.7265625 23  8.2705078125 22.69453125  6.8818359375 22.08359375  C 5.4931640625 21.47265625  4.2978515625 20.655078125  3.2958984375 19.630859375  C 2.2939453125 18.606640625  1.494140625 17.384765625  0.896484375 15.965234375  Z M 21.2607421875 19.972265625  C 22.3681640625 20.457421875  23.53125 20.7  24.75 20.7  C 25.96875 20.7  27.1318359375 20.457421875  28.2392578125 19.972265625  C 29.3466796875 19.487109375  30.3046875 18.83125  31.11328125 18.0046875  C 31.921875 17.178125  32.5634765625 16.198828125  33.0380859375 15.066796875  C 33.5126953125 13.934765625  33.75 12.7458333333333  33.75 11.5  C 33.75 10.2541666666667  33.5126953125 9.065234375  33.0380859375 7.933203125  C 32.5634765625 6.801171875  31.921875 5.821875  31.11328125 4.9953125  C 30.3046875 4.16875  29.3466796875 3.512890625  28.2392578125 3.027734375  C 27.1318359375 2.542578125  25.96875 2.3  24.75 2.3  C 23.53125 2.3  22.3681640625 2.542578125  21.2607421875 3.027734375  C 20.1533203125 3.512890625  19.1953125 4.16875  18.38671875 4.9953125  C 17.578125 5.821875  16.9365234375 6.801171875  16.4619140625 7.933203125  C 15.9873046875 9.065234375  15.75 10.2541666666667  15.75 11.5  C 15.75 12.7458333333333  15.9873046875 13.934765625  16.4619140625 15.066796875  C 16.9365234375 16.198828125  17.578125 17.178125  18.38671875 18.0046875  C 19.1953125 18.83125  20.1533203125 19.487109375  21.2607421875 19.972265625  Z " fill-rule="nonzero" fill="#000000" stroke="none" transform="matrix(1 0 0 1 1926 1206 )" />
  </g>
</svg>